<svg width="155" height="120" viewBox="0 0 155 120" fill="none" xmlns="http://www.w3.org/2000/svg">
<path d="M81.9058 112.604C113.001 112.604 138.208 87.3966 138.208 56.3019C138.208 25.2072 113.001 0 81.9058 0C50.8112 0 25.6039 25.2072 25.6039 56.3019C25.6039 87.3966 50.8112 112.604 81.9058 112.604Z" fill="#F2F2F2"/>
<path d="M137.906 112.755C137.906 115.089 107.09 120 69.0756 120C31.0618 120 0.245453 115.089 0.245453 112.755C0.245453 110.421 31.0618 111.547 69.0756 111.547C107.09 111.547 137.906 110.421 137.906 112.755Z" fill="#3F3D56"/>
<path opacity="0.1" d="M137.906 112.755C137.906 115.089 107.09 120 69.0756 120C31.0618 120 0.245453 115.089 0.245453 112.755C0.245453 110.421 31.0618 111.547 69.0756 111.547C107.09 111.547 137.906 110.421 137.906 112.755Z" fill="black"/>
<path d="M69.0756 116.982C107.09 116.982 137.906 115.09 137.906 112.756C137.906 110.422 107.09 108.529 69.0756 108.529C31.0618 108.529 0.245453 110.422 0.245453 112.756C0.245453 115.09 31.0618 116.982 69.0756 116.982Z" fill="#3F3D56"/>
<path opacity="0.1" d="M69.5285 113.812C84.8674 113.812 97.3021 112.663 97.3021 111.246C97.3021 109.829 84.8674 108.68 69.5285 108.68C54.1895 108.68 41.7549 109.829 41.7549 111.246C41.7549 112.663 54.1895 113.812 69.5285 113.812Z" fill="black"/>
<path d="M111.793 92.8164C111.793 102.357 117.778 110.076 125.174 110.076L111.793 92.8164Z" fill="#3F3D56"/>
<path d="M125.174 110.077C125.174 100.43 131.853 92.623 140.107 92.623L125.174 110.077Z" fill="#3C1450"/>
<path d="M116.641 93.6816C116.641 102.744 120.458 110.077 125.174 110.077L116.641 93.6816Z" fill="#3C1450"/>
<path d="M125.174 110.078C125.174 97.7505 132.894 87.7754 142.434 87.7754L125.174 110.078Z" fill="#3F3D56"/>
<path d="M122.359 110.199C122.359 110.199 124.257 110.141 124.829 109.734C125.4 109.326 127.748 108.84 127.89 109.493C128.031 110.146 130.741 112.742 128.599 112.759C126.456 112.776 123.621 112.425 123.05 112.077C122.479 111.73 122.359 110.199 122.359 110.199Z" fill="#A8A8A8"/>
<path opacity="0.2" d="M128.637 112.532C126.495 112.549 123.659 112.198 123.088 111.851C122.653 111.586 122.48 110.636 122.422 110.197C122.382 110.199 122.359 110.2 122.359 110.2C122.359 110.2 122.479 111.73 123.05 112.078C123.621 112.426 126.456 112.777 128.599 112.759C129.217 112.754 129.431 112.534 129.419 112.208C129.333 112.405 129.098 112.528 128.637 112.532Z" fill="black"/>
<rect x="53.8304" y="92.377" width="34.1132" height="19.9245" fill="#3F3D56"/>
<path d="M95.0256 92.5477H69.8753C68.1579 92.5477 66.7656 91.1554 66.7656 89.4379V77.9153C66.7656 77.5772 66.9046 77.2539 67.15 77.0212L80.4772 64.3882C81.5837 63.3394 83.3173 63.3394 84.4238 64.3882L97.1305 76.4331C97.772 77.0412 98.1353 77.8863 98.1353 78.7702V89.4379C98.1353 91.1554 96.7431 92.5477 95.0256 92.5477Z" fill="#2F2E41"/>
<path opacity="0.1" d="M66.7656 78.1035H97.8739V88.2097C97.8739 90.6049 95.9322 92.5467 93.537 92.5467H71.1026C69.9523 92.5467 68.8492 92.0897 68.0359 91.2764C67.2225 90.4631 66.7656 89.3599 66.7656 88.2097V78.1035H66.7656Z" fill="black"/>
<rect x="70.8502" y="68.2031" width="23.1352" height="23.1352" rx="11.3356" fill="#3C1450"/>
<path opacity="0.1" d="M93.9854 78.623V91.3376H70.8503V78.623L82.4178 84.2141L93.9854 78.623Z" fill="black"/>
<path d="M82.4178 84.9347L67.596 77.7709C67.4096 77.6808 67.1901 77.6929 67.0147 77.8029C66.8394 77.9129 66.7329 78.1053 66.7329 78.3123V90.638C66.7329 91.136 66.9308 91.6136 67.2829 91.9658C67.6351 92.3179 68.1127 92.5157 68.6107 92.5157H96.2249C97.262 92.5157 98.1027 91.675 98.1027 90.638V78.5235C98.1027 78.2709 97.9728 78.0361 97.7588 77.9018C97.5448 77.7676 97.2769 77.7528 97.0495 77.8628L82.4178 84.9347Z" fill="#2F2E41"/>
<rect x="72.8435" y="70.3281" width="6.47" height="0.914949" fill="#F2F2F2"/>
<rect x="72.3207" y="73.6602" width="19.214" height="0.522829" fill="#F2F2F2"/>
<rect x="72.3207" y="75.4258" width="19.214" height="0.522829" fill="#F2F2F2"/>
<rect x="72.3207" y="77.1895" width="19.214" height="0.522829" fill="#F2F2F2"/>
<path d="M71.7978 71.2516C73.2777 71.2516 74.4773 70.0497 74.4773 68.5672C74.4773 67.0846 73.2777 65.8828 71.7978 65.8828C70.318 65.8828 69.1183 67.0846 69.1183 68.5672C69.1183 70.0497 70.318 71.2516 71.7978 71.2516Z" fill="white"/>
<path fill-rule="evenodd" clip-rule="evenodd" d="M68.8393 67.4026C69.3349 66.206 70.5026 65.4258 71.7978 65.4258C73.5643 65.431 74.995 66.8617 75.0002 68.6281C75.0002 69.9233 74.2199 71.091 73.0233 71.5867C71.8267 72.0823 70.4493 71.8084 69.5335 70.8925C68.6176 69.9766 68.3436 68.5993 68.8393 67.4026ZM69.4992 68.6943L71.1404 70.3355L74.098 67.381L73.6376 66.9207L71.142 69.4164L69.9596 68.234L69.4992 68.6943Z" fill="#57B894"/>
<rect x="85.3206" y="16.7559" width="69.434" height="28.9811" fill="#3F3D56"/>
<path d="M113.371 39.0948H105.521C104.986 35.9983 104.986 32.8328 105.521 29.7363H113.371C112.486 32.7932 112.486 36.038 113.371 39.0948Z" fill="#C172E9"/>
<path d="M135.307 39.0948H127.458C126.923 35.9983 126.923 32.8328 127.458 29.7363H135.307C134.423 32.7932 134.423 36.038 135.307 39.0948Z" fill="#C172E9"/>
<path d="M102.226 32.7569H94.3772C93.8416 29.6604 93.8416 26.4949 94.3772 23.3984H102.226C101.342 26.4553 101.342 29.7001 102.226 32.7569Z" fill="#3C1450"/>
<path d="M116.264 32.7569H124.113C124.649 29.6604 124.649 26.4949 124.113 23.3984H116.264C117.148 26.4553 117.148 29.7001 116.264 32.7569Z" fill="#3C1450"/>
<path d="M137.849 32.7569H145.698C146.234 29.6604 146.234 26.4949 145.698 23.3984H137.849C138.733 26.4553 138.733 29.7001 137.849 32.7569V32.7569Z" fill="#3C1450"/>
<path d="M38.5669 24.4432C38.3403 24.4246 38.1134 24.4753 37.9163 24.5885C37.7293 24.748 37.5792 24.9462 37.4763 25.1694C37.0002 26.0054 36.3557 26.7334 35.5836 27.3073C35.0212 27.7193 34.3062 28.233 34.4024 28.9926C34.4532 29.2435 34.5459 29.484 34.6766 29.7041C35.1954 30.7514 36.6111 31.5607 36.4719 32.7558C36.9873 31.8928 36.2979 31.4661 36.8133 30.6032C37.0588 30.1923 37.4852 29.7284 37.8558 29.9865C37.9799 30.0729 38.0614 30.2279 38.1906 30.3037C38.4989 30.4846 38.8269 30.1387 39.0998 29.8937C40.0409 29.0489 41.3792 29.2703 42.5502 29.5335C43.1031 29.6577 43.7104 29.8208 44.0372 30.3492C44.4669 31.0439 43.6289 31.7942 43.4172 32.5797C43.3821 32.7155 43.4158 32.86 43.5075 32.9662C43.5991 33.0725 43.737 33.1271 43.8765 33.1123C44.2279 33.0777 44.6442 33.0493 44.665 32.8951C45.107 32.9108 45.6487 32.8607 45.8382 32.4004C45.8961 32.2183 45.9267 32.0286 45.929 31.8375C45.9985 31.0642 46.3267 30.3587 46.5441 29.6228C46.7615 28.8868 46.8561 28.0243 46.4892 27.3717C46.3582 27.1546 46.1963 26.9578 46.0085 26.7875C43.9263 24.7725 41.1888 24.4402 38.5669 24.4432Z" fill="#2F2E41"/>
<path d="M36.9247 34.264C36.9247 34.264 37.3775 38.0376 35.7171 38.3395C34.0568 38.6414 37.2266 43.7734 37.2266 43.7734L44.7738 44.6791L42.9624 38.6414C42.9624 38.6414 41.7549 38.1885 42.5096 35.1697C43.2643 32.1508 36.9247 34.264 36.9247 34.264Z" fill="#A0616A"/>
<path d="M32.3209 99.0938L32.9247 107.396H36.0945L35.1888 99.0938H32.3209Z" fill="#A0616A"/>
<path d="M55.5662 83.3956L56.019 90.339L59.4907 88.8296L58.1322 83.0938L55.5662 83.3956Z" fill="#A0616A"/>
<path d="M30.0568 67.3959C30.0568 67.3959 30.2077 76.1506 31.1134 79.0185C32.019 81.8864 31.8681 82.0374 31.7171 82.4902C31.5662 82.943 31.4153 82.6411 31.4153 83.3959C31.4153 84.1506 31.1134 96.0751 31.4153 97.1317C31.7171 98.1883 30.5096 99.9996 31.4153 100.151C32.3209 100.302 36.5473 100.151 36.6983 99.2449C36.8492 98.3393 35.4907 98.0374 36.0945 97.4336C36.6983 96.8298 37.6039 84.4525 37.6039 84.4525L39.7171 75.8487L43.6417 71.3204H51.9436L54.5096 81.2827C54.5096 81.2827 53.453 84.1506 54.2077 84.1506C54.9624 84.1506 59.4907 85.0562 59.4907 81.7355C59.4907 78.4147 57.9813 68.6034 57.6794 68.3015C57.3775 67.9996 57.8304 66.943 57.3775 66.4902C56.9247 66.0374 51.6417 62.8676 49.6794 62.2638C47.7171 61.66 44.9644 60.9414 44.9644 60.9414L30.0568 67.3959Z" fill="#2F2E41"/>
<path d="M59.4907 87.6227C59.4907 87.6227 57.2266 86.868 56.17 89.1321C55.1134 91.3963 55.5662 92.0001 55.5662 92.0001C55.5662 92.0001 59.0379 93.2076 59.6417 92.6038C59.9044 92.3412 60.7385 92.2499 61.5971 92.2306C62.9048 92.2013 63.2527 90.3512 62.0177 89.9203C61.9809 89.9075 61.9436 89.8963 61.9058 89.8869C60.6983 89.585 59.4907 87.6227 59.4907 87.6227Z" fill="#2F2E41"/>
<path d="M40.3209 36.7539C42.8218 36.7539 44.8492 34.7265 44.8492 32.2256C44.8492 29.7247 42.8218 27.6973 40.3209 27.6973C37.82 27.6973 35.7926 29.7247 35.7926 32.2256C35.7926 34.7265 37.82 36.7539 40.3209 36.7539Z" fill="#A0616A"/>
<path d="M34.4341 40.2274C34.4341 40.2274 41.8304 41.7368 43.6417 39.3218C45.453 36.9067 46.2077 46.1142 46.2077 46.1142L47.1134 55.7746L45.7549 61.0576C45.7549 61.0576 38.6605 66.7935 36.3964 67.2463C34.1322 67.6991 30.6605 68.001 30.6605 68.001C30.6605 68.001 31.7171 51.2463 31.7171 50.9444C31.7171 50.6425 34.4341 40.2274 34.4341 40.2274Z" fill="#3C1450"/>
<path d="M36.6835 37.395C36.6835 37.395 35.0379 36.4523 34.5851 37.358C34.1322 38.2636 29.9058 40.5278 29.453 40.5278C29.0002 40.5278 30.3587 53.0561 29.7549 54.5655C29.1511 56.075 26.2832 67.0938 27.9436 67.9995C29.6039 68.9051 28.3964 67.0938 30.0568 69.358C31.7172 71.6221 39.8681 71.6221 40.3209 70.7165C40.7738 69.8108 36.6983 63.0184 37.453 56.6787C38.2077 50.3391 39.4153 41.5844 38.3587 40.3768C37.3021 39.1693 36.6835 37.395 36.6835 37.395Z" fill="#575A89"/>
<path d="M42.1322 38.415L42.3425 37.6914C42.3425 37.6914 48.6228 39.7734 48.9247 41.1319C49.2266 42.4904 49.0756 51.9999 48.019 52.7546C46.9624 53.5093 45.453 54.7168 46.5096 56.5282C47.5662 58.3395 48.7738 60.3018 49.6794 60.4527C50.5851 60.6036 52.2455 61.6602 51.7926 62.7168C51.3398 63.7735 45.9058 61.8112 45.9058 61.8112C45.9058 61.8112 42.2832 59.0942 42.4341 54.8678C42.5851 50.6414 42.1322 38.415 42.1322 38.415Z" fill="#575A89"/>
<path d="M47.4153 56.2266L43.7926 63.019C43.7926 63.019 38.5096 68.453 41.5285 69.0568C44.5473 69.6605 46.2077 64.0756 46.2077 64.0756L50.1322 58.4907L47.4153 56.2266Z" fill="#A0616A"/>
<path d="M38.7875 25.6278C38.605 25.6143 38.4221 25.6497 38.2579 25.7305C38.1094 25.839 37.987 25.9792 37.8997 26.141C37.4971 26.7467 36.9723 27.2614 36.3589 27.6521C35.9011 27.9433 35.3191 28.3064 35.3974 28.8433C35.44 29.0233 35.5156 29.1938 35.6206 29.3461C36.0444 30.0938 36.2131 30.9592 36.1012 31.8114L37.36 29.9817C37.5598 29.6912 37.907 29.3633 38.2087 29.5457C38.3097 29.6068 38.376 29.7164 38.4812 29.7699C38.7322 29.8978 38.9992 29.6534 39.2213 29.4802C39.9874 28.8831 41.0768 29.0395 42.0301 29.2256C42.4802 29.3134 42.9745 29.4286 43.2405 29.8021C43.6826 30.4227 43.221 31.3195 43.479 32.0365C43.6249 31.9343 43.7233 31.7774 43.7516 31.6015C44.1115 31.6126 44.5524 31.5772 44.7066 31.2519C44.7535 31.1244 44.7785 30.9898 44.7805 30.854C44.8371 30.3075 45.1043 29.8088 45.2813 29.2887C45.4583 28.7685 45.5352 28.1589 45.2365 27.6977C45.1273 27.5414 44.9954 27.4022 44.8452 27.2847C43.1503 25.8606 40.9218 25.6257 38.7875 25.6278Z" fill="#2F2E41"/>
<path d="M47.4153 40.5293L48.8216 40.9026C48.8216 40.9026 52.0945 49.284 51.3398 55.0199C50.5851 60.7557 50.1322 59.5482 50.1322 59.5482C50.1322 59.5482 48.9247 56.8312 46.2077 57.435L47.4153 40.5293Z" fill="#575A89"/>
<path d="M32.5301 106.299C32.1661 106.793 32.239 107.5 31.9166 108.023C31.6371 108.476 31.1104 108.714 30.7608 109.115C30.6493 109.248 30.5498 109.391 30.4637 109.542C30.1394 110.086 29.8758 110.782 30.1952 111.328C30.4521 111.767 30.9921 111.939 31.4874 112.056C32.1134 112.204 32.7638 112.322 33.3971 112.209C34.0303 112.096 34.6492 111.708 34.8749 111.106C34.9193 110.955 34.9721 110.806 35.033 110.66C35.3762 109.985 36.4527 109.977 36.804 109.306C37.0498 108.836 36.8238 108.268 36.598 107.788L35.9081 106.322C35.6792 105.836 34.7511 106.116 34.2673 105.999C33.6363 105.847 32.984 105.679 32.5301 106.299Z" fill="#2F2E41"/>
<path d="M35.5967 72.3143L38.2732 75.9588L48.7108 70.5661L49.3129 70.2563L36.272 69.4141L35.5967 72.3143Z" fill="#3C1450"/>
<path opacity="0.2" d="M35.7421 72.5124L38.2732 75.9592L48.7108 70.5664L35.7421 72.5124Z" fill="black"/>
<path d="M34.7668 76.5653L35.2509 73.4047L49.3655 70.2598L34.7668 76.5653Z" fill="#3C1450"/>
<path d="M27.4907 59.2461L33.8304 69.0574C33.8304 69.0574 37.7549 74.0385 38.9624 71.7744C40.17 69.5102 34.736 65.7366 34.736 65.7366L30.6605 58.1895L27.4907 59.2461Z" fill="#A0616A"/>
<path d="M30.6606 40.8312L29.453 40.5293C29.453 40.5293 27.0379 41.284 26.4341 44.4538C25.8304 47.6236 26.2832 60.3029 27.0379 60.4538C27.7926 60.6048 30.7654 58.2461 31.2413 58.7462C31.7172 59.2463 30.2077 56.6802 30.6606 55.3217C31.1134 53.9633 30.6606 40.8312 30.6606 40.8312Z" fill="#575A89"/>
</svg>
