<svg width="260" height="204" viewBox="0 0 260 204" fill="none" xmlns="http://www.w3.org/2000/svg">
<path d="M232.17 40.2079H240.33C241.718 40.2078 243.048 39.6588 244.029 38.6814C245.011 37.7041 245.562 36.3786 245.562 34.9965V27.7483C245.562 26.3662 245.01 25.0407 244.029 24.0634C243.048 23.0861 241.717 22.5371 240.33 22.5371H25.452C24.7649 22.5371 24.0846 22.6719 23.4499 22.9338C22.8151 23.1956 22.2384 23.5795 21.7526 24.0634C21.2668 24.5473 20.8814 25.1218 20.6185 25.754C20.3555 26.3863 20.2202 27.064 20.2202 27.7483V34.9965C20.2202 36.3786 20.7714 37.7041 21.7525 38.6815C22.7337 39.6588 24.0644 40.2078 25.452 40.2079H33.3906C34.0777 40.2079 34.758 40.3427 35.3927 40.6046C36.0275 40.8665 36.6042 41.2503 37.09 41.7342C37.5759 42.2182 37.9612 42.7927 38.2241 43.4249C38.4871 44.0572 38.6224 44.7349 38.6224 45.4193V52.6672C38.6224 53.3516 38.4871 54.0292 38.2241 54.6615C37.9612 55.2938 37.5759 55.8683 37.09 56.3522C36.6042 56.8361 36.0275 57.22 35.3927 57.4819C34.758 57.7438 34.0777 57.8786 33.3906 57.8786H33.3714C31.9838 57.8786 30.6531 58.4277 29.672 59.405C28.6908 60.3823 28.1396 61.7079 28.1396 63.09V70.338C28.1396 71.7201 28.6908 73.0456 29.672 74.023C30.6531 75.0003 31.9838 75.5493 33.3714 75.5494H34.52C35.9075 75.5494 37.2382 76.0984 38.2194 77.0757C39.2005 78.053 39.7517 79.3785 39.7517 80.7606V88.0087C39.7515 89.2045 39.3386 90.3638 38.5821 91.2923C37.8257 92.2208 36.7717 92.862 35.597 93.1084H25.452C25.09 93.1085 24.7291 93.146 24.3749 93.2201H15.6702C14.2827 93.2201 12.9519 93.7691 11.9708 94.7464C10.9896 95.7237 10.4384 97.0492 10.4384 98.4313V105.679C10.4384 107.062 10.9896 108.387 11.9707 109.364C12.9519 110.342 14.2826 110.891 15.6702 110.891H34.4677C35.6424 111.137 36.6963 111.778 37.4528 112.707C38.2092 113.635 38.6222 114.795 38.6224 115.99V123.239C38.6224 123.923 38.4871 124.601 38.2241 125.233C37.9612 125.865 37.5759 126.44 37.09 126.924C36.6042 127.407 36.0275 127.791 35.3927 128.053C34.758 128.315 34.0777 128.45 33.3906 128.45H33.3714C32.6844 128.45 32.004 128.585 31.3693 128.847C30.7346 129.108 30.1578 129.492 29.672 129.976C29.1862 130.46 28.8008 131.035 28.5379 131.667C28.275 132.299 28.1396 132.977 28.1396 133.661V140.909C28.1396 141.594 28.275 142.271 28.5379 142.904C28.8008 143.536 29.1862 144.11 29.672 144.594C30.1578 145.078 30.7346 145.462 31.3693 145.724C32.0041 145.986 32.6844 146.12 33.3714 146.12H34.52C35.9075 146.12 37.2383 146.67 38.2194 147.647C39.2005 148.624 39.7517 149.95 39.7517 151.332V158.58C39.7517 159.962 39.2005 161.288 38.2194 162.265C37.2383 163.242 35.9075 163.791 34.52 163.791H23.6702C22.9831 163.791 22.3028 163.926 21.6681 164.188C21.0333 164.45 20.4566 164.834 19.9707 165.318C19.4849 165.802 19.0995 166.376 18.8366 167.008C18.5737 167.641 18.4384 168.318 18.4384 169.003V176.251C18.4384 176.935 18.5737 177.613 18.8366 178.245C19.0995 178.877 19.4849 179.452 19.9707 179.936C20.4566 180.42 21.0333 180.803 21.6681 181.065C22.3028 181.327 22.9831 181.462 23.6702 181.462H229.255C229.942 181.462 230.623 181.327 231.257 181.065C231.892 180.803 232.469 180.42 232.955 179.936C233.441 179.452 233.826 178.877 234.089 178.245C234.352 177.613 234.487 176.935 234.487 176.251V169.003C234.487 168.318 234.352 167.641 234.089 167.008C233.826 166.376 233.441 165.802 232.955 165.318C232.469 164.834 231.892 164.45 231.257 164.188C230.623 163.926 229.942 163.791 229.255 163.791H224.719C223.332 163.791 222.001 163.242 221.02 162.265C220.039 161.288 219.487 159.962 219.487 158.58V151.332C219.487 149.95 220.039 148.624 221.02 147.647C222.001 146.67 223.332 146.12 224.719 146.12H235.415C236.102 146.12 236.782 145.986 237.417 145.724C238.052 145.462 238.629 145.078 239.115 144.594C239.6 144.11 239.986 143.536 240.249 142.904C240.512 142.271 240.647 141.594 240.647 140.909V133.661C240.647 132.977 240.512 132.299 240.249 131.667C239.986 131.035 239.6 130.46 239.115 129.976C238.629 129.492 238.052 129.108 237.417 128.847C236.782 128.585 236.102 128.45 235.415 128.45H232.17C230.783 128.45 229.452 127.901 228.471 126.924C227.49 125.946 226.939 124.621 226.939 123.239V115.99C226.939 114.608 227.49 113.283 228.471 112.305C229.452 111.328 230.783 110.779 232.17 110.779H244.33C245.017 110.779 245.697 110.644 246.332 110.382C246.967 110.12 247.544 109.737 248.029 109.253C248.515 108.769 248.901 108.194 249.163 107.562C249.426 106.93 249.562 106.252 249.562 105.568V98.3196C249.562 97.6353 249.426 96.9576 249.163 96.3254C248.901 95.6931 248.515 95.1186 248.029 94.6347C247.544 94.1508 246.967 93.767 246.332 93.5051C245.697 93.2432 245.017 93.1084 244.33 93.1084H225.864C224.476 93.1084 223.145 92.5594 222.164 91.582C221.183 90.6047 220.632 89.2792 220.632 87.897V80.6489C220.632 79.4531 221.045 78.2938 221.801 77.3653C222.558 76.4368 223.612 75.7957 224.787 75.5494H235.415C236.102 75.5494 236.783 75.4145 237.417 75.1526C238.052 74.8908 238.629 74.5069 239.115 74.023C239.6 73.539 239.986 72.9645 240.249 72.3323C240.512 71.7 240.647 71.0223 240.647 70.338V63.09C240.647 62.4056 240.512 61.728 240.249 61.0957C239.986 60.4634 239.6 59.8889 239.115 59.405C238.629 58.9211 238.052 58.5372 237.417 58.2753C236.783 58.0134 236.102 57.8786 235.415 57.8786H232.171C230.783 57.8786 229.452 57.3296 228.471 56.3522C227.49 55.3749 226.939 54.0494 226.939 52.6672V45.4193C226.939 44.0371 227.49 42.7116 228.471 41.7343C229.452 40.7569 230.783 40.2079 232.17 40.2079Z" fill="#F8F2FB"/>
<path d="M192.741 37.0977H102.812C101.487 37.0977 100.412 38.168 100.412 39.4883V173.623C100.412 174.943 101.487 176.014 102.812 176.014H192.741C194.066 176.014 195.141 174.943 195.141 173.623V39.4883C195.141 38.168 194.066 37.0977 192.741 37.0977Z" fill="#DCDBE0"/>
<path d="M164.442 139.652V159.788H112.901C112.347 159.788 111.816 159.569 111.424 159.179C111.033 158.789 110.813 158.26 110.813 157.708V45.0441C110.813 44.4924 111.033 43.9633 111.424 43.5731C111.816 43.183 112.347 42.9639 112.901 42.9639H182.652C183.206 42.9639 183.737 43.183 184.129 43.5731C184.521 43.9633 184.741 44.4924 184.741 45.0441V139.652H164.442Z" fill="#AE60D5"/>
<path d="M164.442 159.788V139.651H184.741L164.442 159.788Z" fill="#DBE8EC"/>
<path d="M81.5352 62.2803H55.8676C55.2049 62.2803 54.6676 62.8154 54.6676 63.4756V77.8687C54.6676 78.5289 55.2049 79.0641 55.8676 79.0641H81.5352C82.1979 79.0641 82.7352 78.5289 82.7352 77.8687V63.4756C82.7352 62.8154 82.1979 62.2803 81.5352 62.2803Z" fill="#C98DE7"/>
<path d="M72.43 59.9502H64.9728C64.3101 59.9502 63.7728 60.4854 63.7728 61.1455V64.2465C63.7728 64.9067 64.3101 65.4419 64.9728 65.4419H72.43C73.0928 65.4419 73.63 64.9067 73.63 64.2465V61.1455C73.63 60.4854 73.0928 59.9502 72.43 59.9502Z" fill="#DCDBE0"/>
<path d="M229.583 107.475H203.916C203.253 107.475 202.716 108.01 202.716 108.67V123.063C202.716 123.723 203.253 124.258 203.916 124.258H229.583C230.246 124.258 230.783 123.723 230.783 123.063V108.67C230.783 108.01 230.246 107.475 229.583 107.475Z" fill="#C98DE7"/>
<path d="M220.478 105.145H213.021C212.358 105.145 211.821 105.68 211.821 106.34V109.441C211.821 110.101 212.358 110.636 213.021 110.636H220.478C221.141 110.636 221.678 110.101 221.678 109.441V106.34C221.678 105.68 221.141 105.145 220.478 105.145Z" fill="#DCDBE0"/>
<path d="M39.5958 96.2095H63.5406C64.5598 96.2099 65.5682 96.417 66.5044 96.8181C67.4406 97.2192 68.285 97.8059 68.9862 98.5426C69.6875 99.2792 70.2308 100.15 70.5831 101.103C70.9354 102.056 71.0893 103.07 71.0355 104.083C70.2795 118.528 67.8773 134.037 67.8773 134.037C67.8773 134.037 46.8349 136.548 44.1335 136.548H42.2258C41.3428 136.548 40.4714 136.349 39.6768 135.966C38.8821 135.582 38.185 135.025 37.6377 134.334C37.0904 133.644 36.7071 132.84 36.5166 131.981C36.3261 131.122 36.3333 130.232 36.5378 129.376L42.8715 102.865C43.0759 102.009 43.0831 101.119 42.8926 100.26C42.7021 99.401 42.3188 98.5964 41.7715 97.9062C41.2242 97.2161 40.5271 96.6584 39.7325 96.275C38.9379 95.8916 38.0664 95.6924 37.1835 95.6924L39.5958 96.2095Z" fill="#C98DE7"/>
<path d="M41.3091 136.6H64.7602L62.4361 147.001L70.1004 113.737C70.297 112.884 70.2979 111.998 70.1031 111.144C69.9083 110.29 69.5227 109.491 68.9751 108.806C68.4275 108.121 67.7319 107.568 66.9401 107.188C66.1483 106.808 65.2806 106.611 64.4017 106.611H60.6679C59.3555 106.611 58.0812 107.05 57.0502 107.859C56.0192 108.668 55.2914 109.799 54.9838 111.07L49.8175 132.089C49.51 133.36 48.7822 134.491 47.7511 135.3C46.7201 136.108 45.4459 136.548 44.1334 136.548L41.3091 136.6ZM29.2169 107.122L31.5899 99.8207C31.9548 98.6262 32.6955 97.5802 33.7026 96.8369C34.7097 96.0936 35.93 95.6924 37.1834 95.6924C38.0664 95.6924 38.9378 95.8916 39.7324 96.275C40.527 96.6584 41.2241 97.2161 41.7714 97.9062C42.3188 98.5964 42.702 99.401 42.8925 100.26C43.0831 101.119 43.0758 102.009 42.8714 102.865L41.8544 107.122H29.2169Z" fill="#DBB3EF"/>
<path d="M64.4017 106.61C65.2806 106.61 66.1483 106.808 66.9401 107.188C67.7319 107.568 68.4275 108.121 68.9751 108.806C69.5227 109.491 69.9083 110.29 70.1031 111.144C70.2979 111.997 70.297 112.884 70.1004 113.737L57.3934 168.887C57.1968 169.74 57.1958 170.627 57.3907 171.48C57.5855 172.334 57.971 173.133 58.5186 173.818C59.0663 174.503 59.7618 175.056 60.5537 175.436C61.3455 175.816 62.2131 176.014 63.0921 176.014H65.3699L97.1197 168.887L109.827 113.737C110.023 112.884 110.024 111.997 109.829 111.144C109.635 110.29 109.249 109.491 108.701 108.806C108.154 108.121 107.458 107.568 106.666 107.188C105.875 106.808 105.007 106.61 104.128 106.61H100.394L64.4017 106.61Z" fill="#FAEFFF"/>
<path d="M102.818 176.014H105.096C106.364 176.014 107.598 175.603 108.612 174.844C109.625 174.084 110.363 173.017 110.714 171.803L113.365 162.642C113.717 161.428 114.455 160.361 115.468 159.601C116.481 158.841 117.715 158.431 118.983 158.431H119.623H79.2572C77.9889 158.431 76.7551 158.841 75.7417 159.601C74.7283 160.361 73.9903 161.428 73.6391 162.642L70.988 171.803C70.6367 173.017 69.8988 174.084 68.8854 174.844C67.872 175.603 66.6381 176.014 65.3699 176.014H102.818Z" fill="#DBB3EF"/>
<path d="M79.2572 158.431H79.8967C80.7809 158.431 81.6536 158.63 82.4491 159.015C83.2447 159.399 83.9423 159.959 84.4895 160.65C85.0367 161.342 85.4192 162.149 85.6083 163.009C85.7974 163.87 85.7881 164.762 85.5811 165.618L84.6184 169.601H124.345L125.307 165.618C125.514 164.762 125.524 163.87 125.335 163.009C125.145 162.149 124.763 161.342 124.216 160.65C123.669 159.959 122.971 159.399 122.175 159.015C121.38 158.63 120.507 158.431 119.623 158.431H118.983H79.2572Z" fill="#C98DE7"/>
<path d="M66.7896 148.811H94.6436" stroke="#DBB3EF" stroke-width="4" stroke-miterlimit="10"/>
<path d="M68.7012 142.175H96.5552" stroke="#DBB3EF" stroke-width="4" stroke-miterlimit="10"/>
<path d="M70.6564 135.479H98.51" stroke="#DBB3EF" stroke-width="4" stroke-miterlimit="10"/>
<path d="M72.6112 128.782H100.465" stroke="#DBB3EF" stroke-width="4" stroke-miterlimit="10"/>
<path d="M74.566 122.086H102.42" stroke="#DBB3EF" stroke-width="4" stroke-miterlimit="10"/>
<path d="M76.5208 115.39H104.375" stroke="#DBB3EF" stroke-width="4" stroke-miterlimit="10"/>
<path d="M42.5648 128.4H56.3128" stroke="#DBB3EF" stroke-width="4" stroke-miterlimit="10"/>
<path d="M43.508 121.766H57.2564" stroke="#DBB3EF" stroke-width="4" stroke-miterlimit="10"/>
<path d="M44.4732 115.069H58.2212" stroke="#DBB3EF" stroke-width="4" stroke-miterlimit="10"/>
<path d="M45.438 108.373H59.186" stroke="#DBB3EF" stroke-width="4" stroke-miterlimit="10"/>
<path d="M147.777 90.1466H137.161C136.957 90.1466 136.755 90.0929 136.578 89.9909C136.4 89.8888 136.253 89.742 136.15 89.5652C136.048 89.3885 135.994 89.188 135.994 88.9838C135.994 88.7797 136.048 88.5792 136.15 88.4024L141.458 79.2453L146.766 70.0882C146.868 69.9115 147.016 69.7647 147.193 69.6626C147.37 69.5606 147.572 69.5068 147.777 69.5068C147.982 69.5068 148.183 69.5606 148.36 69.6626C148.538 69.7647 148.685 69.9115 148.788 70.0882L154.095 79.2453L159.403 88.4024C159.505 88.5792 159.559 88.7797 159.559 88.9838C159.559 89.188 159.505 89.3885 159.403 89.5652C159.3 89.742 159.153 89.8888 158.976 89.9909C158.798 90.0929 158.597 90.1466 158.392 90.1466H147.777Z" fill="#DBE8EC"/>
<path d="M148.361 73.5283H147.193V83.3634H148.361V73.5283Z" fill="#DCDBE0"/>
<path d="M149.167 86.9001C149.243 86.1352 148.682 85.4537 147.914 85.3779C147.147 85.3022 146.462 85.8609 146.386 86.6258C146.31 87.3907 146.871 88.0721 147.639 88.1479C148.407 88.2236 149.091 87.665 149.167 86.9001Z" fill="#DCDBE0"/>
<path d="M121.839 99.5361H173.714" stroke="#F7EDFC" stroke-width="3" stroke-miterlimit="10"/>
<path d="M121.839 108.927H173.714" stroke="#F7EDFC" stroke-width="3" stroke-miterlimit="10"/>
<path d="M121.839 118.316H173.714" stroke="#F7EDFC" stroke-width="3" stroke-miterlimit="10"/>
<path d="M121.839 127.706H173.714" stroke="#F7EDFC" stroke-width="3" stroke-miterlimit="10"/>
<path d="M121.839 60.1172H173.714" stroke="#F7EDFC" stroke-width="3" stroke-miterlimit="10"/>
<path d="M171.314 27.9863H124.239C122.914 27.9863 121.839 29.0566 121.839 30.377V44.8167C121.839 46.137 122.914 47.2074 124.239 47.2074H171.314C172.639 47.2074 173.714 46.137 173.714 44.8167V30.377C173.714 29.0566 172.639 27.9863 171.314 27.9863Z" fill="#C98DE7"/>
<path d="M80.474 88.583H92.602" stroke="#F7EDFC" stroke-width="3" stroke-miterlimit="10" stroke-linecap="round"/>
<path d="M80.474 92.0645H92.602" stroke="#F7EDFC" stroke-width="3" stroke-miterlimit="10" stroke-linecap="round"/>
<path d="M80.474 95.5469H92.602" stroke="#F7EDFC" stroke-width="3" stroke-miterlimit="10" stroke-linecap="round"/>
<path d="M203.19 30.1934H215.318" stroke="#F7EDFC" stroke-width="3" stroke-miterlimit="10" stroke-linecap="round"/>
<path d="M203.19 33.6758H215.318" stroke="#F7EDFC" stroke-width="3" stroke-miterlimit="10" stroke-linecap="round"/>
<path d="M203.19 37.1582H215.318" stroke="#F7EDFC" stroke-width="3" stroke-miterlimit="10" stroke-linecap="round"/>
<path d="M203.19 155.182H215.318" stroke="#F7EDFC" stroke-width="3" stroke-miterlimit="10" stroke-linecap="round"/>
<path d="M203.19 158.663H215.318" stroke="#F7EDFC" stroke-width="3" stroke-miterlimit="10" stroke-linecap="round"/>
<path d="M203.19 162.146H215.318" stroke="#F7EDFC" stroke-width="3" stroke-miterlimit="10" stroke-linecap="round"/>
<path d="M35.8708 177.31C38.7339 177.31 41.0548 174.998 41.0548 172.146C41.0548 169.294 38.7339 166.982 35.8708 166.982C33.0078 166.982 30.6868 169.294 30.6868 172.146C30.6868 174.998 33.0078 177.31 35.8708 177.31Z" fill="#F7EDFC"/>
<path d="M28.9588 162.489C30.4434 162.489 31.6468 161.29 31.6468 159.811C31.6468 158.333 30.4434 157.134 28.9588 157.134C27.4743 157.134 26.2708 158.333 26.2708 159.811C26.2708 161.29 27.4743 162.489 28.9588 162.489Z" fill="#F7EDFC"/>
<path d="M46.542 166.313C48.6628 166.313 50.382 164.601 50.382 162.488C50.382 160.376 48.6628 158.663 46.542 158.663C44.4213 158.663 42.702 160.376 42.702 162.488C42.702 164.601 44.4213 166.313 46.542 166.313Z" fill="#F7EDFC"/>
<path d="M216.236 87.0017C219.643 87.0017 222.404 84.251 222.404 80.8578C222.404 77.4646 219.643 74.7139 216.236 74.7139C212.83 74.7139 210.068 77.4646 210.068 80.8578C210.068 84.251 212.83 87.0017 216.236 87.0017Z" fill="#F7EDFC"/>
<path d="M204.45 79.6817C206.224 79.6817 207.663 78.2489 207.663 76.4815C207.663 74.714 206.224 73.2812 204.45 73.2812C202.676 73.2812 201.237 74.714 201.237 76.4815C201.237 78.2489 202.676 79.6817 204.45 79.6817Z" fill="#F7EDFC"/>
<path d="M207.401 67.4488C208.425 67.4488 209.254 66.6223 209.254 65.6028C209.254 64.5833 208.425 63.7568 207.401 63.7568C206.378 63.7568 205.548 64.5833 205.548 65.6028C205.548 66.6223 206.378 67.4488 207.401 67.4488Z" fill="#F7EDFC"/>
<path d="M217.66 71.3343C220.114 71.3343 222.103 69.3529 222.103 66.9088C222.103 64.4647 220.114 62.4834 217.66 62.4834C215.206 62.4834 213.217 64.4647 213.217 66.9088C213.217 69.3529 215.206 71.3343 217.66 71.3343Z" fill="#F7EDFC"/>
<path d="M73.4976 51.322C76.9041 51.322 79.6656 48.5713 79.6656 45.1781C79.6656 41.7849 76.9041 39.0342 73.4976 39.0342C70.0911 39.0342 67.3296 41.7849 67.3296 45.1781C67.3296 48.5713 70.0911 51.322 73.4976 51.322Z" fill="#F7EDFC"/>
<path d="M73.748 35.8517C75.5224 35.8517 76.9608 34.4189 76.9608 32.6514C76.9608 30.884 75.5224 29.4512 73.748 29.4512C71.9736 29.4512 70.5352 30.884 70.5352 32.6514C70.5352 34.4189 71.9736 35.8517 73.748 35.8517Z" fill="#F7EDFC"/>
<path d="M95.1468 37.2909C96.6826 37.2909 97.9276 36.0507 97.9276 34.5209C97.9276 32.9911 96.6826 31.751 95.1468 31.751C93.611 31.751 92.366 32.9911 92.366 34.5209C92.366 36.0507 93.611 37.2909 95.1468 37.2909Z" fill="#F7EDFC"/>
<path d="M85.0308 33.6753C86.0543 33.6753 86.884 32.8489 86.884 31.8294C86.884 30.8099 86.0543 29.9834 85.0308 29.9834C84.0073 29.9834 83.1776 30.8099 83.1776 31.8294C83.1776 32.8489 84.0073 33.6753 85.0308 33.6753Z" fill="#F7EDFC"/>
<path d="M87.1844 46.3304C89.6381 46.3304 91.6272 44.349 91.6272 41.9049C91.6272 39.4608 89.6381 37.4795 87.1844 37.4795C84.7307 37.4795 82.7416 39.4608 82.7416 41.9049C82.7416 44.349 84.7307 46.3304 87.1844 46.3304Z" fill="#F7EDFC"/>
</svg>
