<svg width="40" height="40" viewBox="0 0 40 40" fill="none" xmlns="http://www.w3.org/2000/svg">
<g clip-path="url(#clip0_1172_9971)">
<rect width="40" height="40" rx="20" fill="#F8F2FB"/>
<rect x="4" y="12" width="32" height="32" rx="4" fill="#551B73"/>
<rect x="10.8334" y="25.834" width="18.3333" height="2.5" rx="1.25" fill="white"/>
<rect opacity="0.5" x="14.1666" y="30.834" width="10.8333" height="2.5" rx="1.25" fill="white"/>
<ellipse cx="20" cy="13.3333" rx="8.33333" ry="8.33333" fill="#F8F2FB"/>
<g clip-path="url(#clip1_1172_9971)">
<path d="M21.3888 11.5959C21.3888 11.9643 21.2425 12.3175 20.982 12.578C20.7215 12.8385 20.3682 12.9848 19.9999 12.9848C19.6315 12.9848 19.2783 12.8385 19.0178 12.578C18.7573 12.3175 18.611 11.9643 18.611 11.5959C18.611 11.2276 18.7573 10.8743 19.0178 10.6138C19.2783 10.3534 19.6315 10.207 19.9999 10.207C20.3682 10.207 20.7215 10.3534 20.982 10.6138C21.2425 10.8743 21.3888 11.2276 21.3888 11.5959V11.5959ZM19.9999 14.0265C19.3553 14.0265 18.737 14.2826 18.2812 14.7384C17.8254 15.1942 17.5693 15.8124 17.5693 16.457H22.4304C22.4304 15.8124 22.1744 15.1942 21.7186 14.7384C21.2627 14.2826 20.6445 14.0265 19.9999 14.0265V14.0265Z" stroke="white" stroke-linecap="round" stroke-linejoin="round"/>
</g>
<g clip-path="url(#clip2_1172_9971)">
<path d="M20.0852 18.625C23.1977 18.625 25.7102 16.1125 25.7102 13H14.4602C14.4602 16.1125 16.9727 18.625 20.0852 18.625Z" fill="white"/>
<path d="M20.0852 7.375C16.9727 7.375 14.4602 9.8875 14.4602 13H25.7102C25.7102 9.8875 23.1977 7.375 20.0852 7.375Z" fill="#ED4C5C"/>
</g>
</g>
<defs>
<clipPath id="clip0_1172_9971">
<rect width="40" height="40" rx="20" fill="white"/>
</clipPath>
<clipPath id="clip1_1172_9971">
<rect width="8.33333" height="8.33333" fill="white" transform="translate(15.8333 9.16602)"/>
</clipPath>
<clipPath id="clip2_1172_9971">
<rect width="12" height="12" fill="white" transform="translate(14.1227 7)"/>
</clipPath>
</defs>
</svg>
