<svg width="23" height="23" viewBox="0 0 23 23" fill="none" xmlns="http://www.w3.org/2000/svg">
<g clip-path="url(#clip0_1332_15371)">
<path d="M19.6086 8.9636C19.6086 4.49263 15.971 0.85498 11.5 0.85498C7.02904 0.85498 3.39139 4.49263 3.39139 8.9636C3.39084 10.056 3.61163 11.1372 4.04044 12.1419C4.46925 13.1466 5.09719 14.054 5.88635 14.8093V21.5216C5.88632 21.6279 5.91348 21.7325 5.96524 21.8254C6.01701 21.9183 6.09167 21.9964 6.18213 22.0523C6.27258 22.1082 6.37583 22.1401 6.48207 22.1449C6.5883 22.1496 6.694 22.1272 6.78911 22.0796L11.5 19.7239L16.2109 22.0796C16.306 22.1272 16.4117 22.1496 16.518 22.1449C16.6242 22.1401 16.7274 22.1082 16.8179 22.0523C16.9083 21.9964 16.983 21.9183 17.0348 21.8254C17.0865 21.7325 17.1137 21.6279 17.1137 21.5216V14.8093C17.9028 14.054 18.5308 13.1466 18.9596 12.1419C19.3884 11.1372 19.6092 10.056 19.6086 8.9636ZM4.63887 8.9636C4.63887 5.17958 7.71599 2.10246 11.5 2.10246C15.284 2.10246 18.3612 5.17958 18.3612 8.9636C18.3612 12.7476 15.284 15.8247 11.5 15.8247C7.71599 15.8247 4.63887 12.7476 4.63887 8.9636ZM15.8662 20.5124L11.779 18.4686C11.6924 18.4252 11.5969 18.4027 11.5 18.4027C11.4031 18.4027 11.3076 18.4252 11.221 18.4686L7.13383 20.5124V15.7936C8.43703 16.6285 9.95229 17.0722 11.5 17.0722C13.0477 17.0722 14.563 16.6285 15.8662 15.7936V20.5124Z" fill="#551B73"/>
<path d="M7.82285 13.142C7.78218 13.2673 7.7822 13.4022 7.82291 13.5274C7.86362 13.6527 7.94292 13.7618 8.04946 13.8392C8.156 13.9166 8.28431 13.9583 8.416 13.9584C8.54769 13.9584 8.67601 13.9167 8.78258 13.8393L11.5 11.8654L14.2174 13.8393C14.324 13.9167 14.4523 13.9584 14.584 13.9584C14.7157 13.9583 14.844 13.9166 14.9506 13.8392C15.0571 13.7618 15.1364 13.6527 15.1771 13.5274C15.2178 13.4022 15.2178 13.2673 15.1772 13.142L14.1376 9.94763L16.855 7.9737C16.9616 7.89638 17.0409 7.78733 17.0817 7.66217C17.1225 7.53701 17.1226 7.40215 17.0821 7.2769C17.0416 7.15164 16.9625 7.04242 16.8561 6.96487C16.7498 6.88732 16.6216 6.84541 16.4899 6.84514H13.1313L12.0917 3.65076C12.0511 3.52536 11.9718 3.41605 11.8652 3.33853C11.7586 3.261 11.6302 3.21924 11.4983 3.21924C11.3665 3.21924 11.2381 3.261 11.1315 3.33853C11.0249 3.41605 10.9456 3.52536 10.905 3.65076L9.86539 6.84514H6.51009C6.3783 6.84506 6.24988 6.88672 6.14323 6.96414C6.03659 7.04156 5.95721 7.15077 5.91648 7.2761C5.87575 7.40144 5.87576 7.53645 5.91651 7.66177C5.95727 7.7871 6.03667 7.89629 6.14333 7.9737L8.86075 9.94763L7.82285 13.142ZM8.42996 8.09262H10.322C10.4537 8.09267 10.5821 8.05102 10.6887 7.97363C10.7952 7.89624 10.8746 7.78709 10.9154 7.66183L11.5 5.86213L12.0847 7.66183C12.1254 7.78709 12.2048 7.89624 12.3114 7.97363C12.418 8.05102 12.5463 8.09267 12.678 8.09262H14.5701L13.0386 9.20496C12.932 9.28238 12.8527 9.39154 12.812 9.51681C12.7713 9.64208 12.7712 9.77703 12.8119 9.9023L13.3966 11.702L11.8659 10.5897C11.7593 10.5122 11.631 10.4704 11.4992 10.4704C11.3674 10.4704 11.239 10.5122 11.1324 10.5897L9.60176 11.702L10.1864 9.9023C10.2273 9.7772 10.2275 9.64237 10.1871 9.51712C10.1467 9.39186 10.0677 9.2826 9.96145 9.20496L8.42996 8.09262Z" fill="#551B73"/>
</g>
<defs>
<clipPath id="clip0_1332_15371">
<rect width="21.2903" height="21.2903" fill="white" transform="translate(0.854843 0.85498)"/>
</clipPath>
</defs>
</svg>
