<svg width="23" height="23" viewBox="0 0 23 23" fill="none" xmlns="http://www.w3.org/2000/svg">
<path d="M19.6081 9.63721H12.1032V12.8929L13.496 11.5001C13.7532 11.2429 14.179 11.2429 14.4363 11.5001C14.6936 11.7574 14.6936 12.1832 14.4363 12.4404L11.9081 14.9598C11.6508 15.217 11.225 15.217 10.9678 14.9598L8.43953 12.4404C8.30646 12.3074 8.24437 12.1388 8.24437 11.9703C8.24437 11.8017 8.31533 11.6332 8.4484 11.5001C8.70566 11.2429 9.13146 11.2429 9.38872 11.5001L10.7726 12.884V9.63721H3.39195C2.96614 9.63721 2.62904 9.9743 2.62904 10.4001C2.62904 15.6251 6.27501 19.2711 11.5 19.2711C16.725 19.2711 20.371 15.6251 20.371 10.4001C20.371 9.9743 20.0339 9.63721 19.6081 9.63721Z" fill="#551B73"/>
<path d="M12.1032 4.39433C12.1032 4.03062 11.8016 3.729 11.4379 3.729C11.0742 3.729 10.7726 4.03062 10.7726 4.39433V9.6282H12.1032V4.39433Z" fill="#551B73"/>
</svg>
