<svg width="16" height="16" viewBox="0 0 16 16" fill="none" xmlns="http://www.w3.org/2000/svg">
<g clip-path="url(#clip0_2503_12665)">
<path d="M14.0938 6.09375C14.0938 2.73375 11.36 0 8 0C4.64 0 1.90625 2.73375 1.90625 6.09375C1.90584 6.91469 2.07177 7.72721 2.39402 8.48226C2.71628 9.23731 3.18818 9.91923 3.78125 10.4869V15.5312C3.78123 15.6112 3.80164 15.6898 3.84054 15.7596C3.87945 15.8294 3.93555 15.8881 4.00353 15.9301C4.07151 15.9721 4.14911 15.9961 4.22894 15.9997C4.30878 16.0033 4.38821 15.9864 4.45969 15.9506L8 14.1803L11.5403 15.9506C11.6118 15.9864 11.6912 16.0033 11.7711 15.9997C11.8509 15.9961 11.9285 15.9721 11.9965 15.9301C12.0645 15.8881 12.1206 15.8294 12.1595 15.7596C12.1984 15.6898 12.2188 15.6112 12.2188 15.5312V10.4869C12.8118 9.91923 13.2837 9.23731 13.606 8.48226C13.9282 7.72721 14.0942 6.91469 14.0938 6.09375ZM2.84375 6.09375C2.84375 3.25 5.15625 0.9375 8 0.9375C10.8438 0.9375 13.1563 3.25 13.1563 6.09375C13.1563 8.9375 10.8438 11.25 8 11.25C5.15625 11.25 2.84375 8.9375 2.84375 6.09375ZM11.2813 14.7728L8.20969 13.2369C8.14459 13.2043 8.07279 13.1874 8 13.1874C7.92721 13.1874 7.85542 13.2043 7.79031 13.2369L4.71875 14.7728V11.2266C5.69812 11.854 6.83687 12.1875 8 12.1875C9.16313 12.1875 10.3019 11.854 11.2813 11.2266V14.7728Z" fill="white"/>
<path d="M5.23687 9.23445C5.20631 9.32859 5.20632 9.42998 5.23691 9.5241C5.2675 9.61822 5.3271 9.70025 5.40717 9.75842C5.48723 9.8166 5.58366 9.84794 5.68263 9.84796C5.7816 9.84797 5.87803 9.81667 5.95812 9.75852L8.00031 8.27508L10.0425 9.75852C10.1226 9.81667 10.219 9.84797 10.318 9.84796C10.417 9.84794 10.5134 9.8166 10.5934 9.75842C10.6735 9.70025 10.7331 9.61822 10.7637 9.5241C10.7943 9.42998 10.7943 9.32859 10.7637 9.23445L9.98249 6.83383L12.0247 5.35039C12.1047 5.29228 12.1644 5.21033 12.195 5.11627C12.2257 5.02221 12.2258 4.92086 12.1954 4.82673C12.1649 4.73261 12.1055 4.65053 12.0255 4.59224C11.9456 4.53396 11.8492 4.50247 11.7503 4.50227H9.22624L8.44499 2.10164C8.41447 2.0074 8.35487 1.92525 8.27475 1.86699C8.19463 1.80873 8.09812 1.77734 7.99906 1.77734C7.89999 1.77734 7.80348 1.80873 7.72336 1.86699C7.64324 1.92525 7.58364 2.0074 7.55312 2.10164L6.77187 4.50227H4.2503C4.15127 4.5022 4.05475 4.53351 3.97461 4.59169C3.89447 4.64988 3.83481 4.73195 3.8042 4.82614C3.77359 4.92033 3.7736 5.02179 3.80423 5.11598C3.83485 5.21016 3.89453 5.29222 3.97468 5.35039L6.01687 6.83383L5.23687 9.23445ZM5.69312 5.43977H7.11499C7.21399 5.4398 7.31045 5.4085 7.39056 5.35034C7.47067 5.29218 7.53031 5.21016 7.56093 5.11602L8.00031 3.76352L8.43968 5.11602C8.4703 5.21016 8.52994 5.29218 8.61005 5.35034C8.69016 5.4085 8.78662 5.4398 8.88562 5.43977H10.3075L9.15656 6.2757C9.07647 6.33388 9.01686 6.41592 8.98626 6.51007C8.95567 6.60421 8.95566 6.70562 8.98624 6.79977L9.42562 8.15227L8.2753 7.31633C8.1952 7.2581 8.09871 7.22673 7.99968 7.22673C7.90065 7.22673 7.80416 7.2581 7.72406 7.31633L6.57374 8.15227L7.01312 6.79977C7.04383 6.70575 7.04402 6.60442 7.01365 6.51029C6.98328 6.41616 6.92392 6.33405 6.84405 6.2757L5.69312 5.43977Z" fill="white"/>
</g>
<defs>
<clipPath id="clip0_2503_12665">
<rect width="16" height="16" fill="white"/>
</clipPath>
</defs>
</svg>
