<svg width="40" height="40" viewBox="0 0 40 40" fill="none" xmlns="http://www.w3.org/2000/svg">
<g clip-path="url(#clip0_1332_19701)">
<rect width="40" height="40" rx="20" fill="#0F0B11"/>
<rect x="4" y="12" width="32" height="32" rx="4" fill="#9310D5"/>
<rect x="10.834" y="25.834" width="18.3333" height="2.5" rx="1.25" fill="white"/>
<rect opacity="0.5" x="14.166" y="30.834" width="10.8333" height="2.5" rx="1.25" fill="white"/>
<ellipse cx="19.9993" cy="13.3333" rx="8.33333" ry="8.33333" fill="#0F0B11"/>
<g clip-path="url(#clip1_1332_19701)">
<path d="M21.3878 11.5959C21.3878 11.9643 21.2415 12.3175 20.981 12.578C20.7205 12.8385 20.3673 12.9848 19.9989 12.9848C19.6306 12.9848 19.2773 12.8385 19.0168 12.578C18.7564 12.3175 18.61 11.9643 18.61 11.5959C18.61 11.2276 18.7564 10.8743 19.0168 10.6138C19.2773 10.3534 19.6306 10.207 19.9989 10.207C20.3673 10.207 20.7205 10.3534 20.981 10.6138C21.2415 10.8743 21.3878 11.2276 21.3878 11.5959V11.5959ZM19.9989 14.0265C19.3543 14.0265 18.7361 14.2826 18.2803 14.7384C17.8244 15.1942 17.5684 15.8124 17.5684 16.457H22.4295C22.4295 15.8124 22.1734 15.1942 21.7176 14.7384C21.2618 14.2826 20.6435 14.0265 19.9989 14.0265V14.0265Z" stroke="#0F0B11" stroke-linecap="round" stroke-linejoin="round"/>
</g>
<g clip-path="url(#clip2_1332_19701)">
<path d="M20.0859 18.625C23.1984 18.625 25.7109 16.1125 25.7109 13H14.4609C14.4609 16.1125 16.9734 18.625 20.0859 18.625Z" fill="white"/>
<path d="M20.0859 7.375C16.9734 7.375 14.4609 9.8875 14.4609 13H25.7109C25.7109 9.8875 23.1984 7.375 20.0859 7.375Z" fill="#ED4C5C"/>
</g>
</g>
<defs>
<clipPath id="clip0_1332_19701">
<rect width="40" height="40" rx="20" fill="white"/>
</clipPath>
<clipPath id="clip1_1332_19701">
<rect width="8.33333" height="8.33333" fill="white" transform="translate(15.832 9.16602)"/>
</clipPath>
<clipPath id="clip2_1332_19701">
<rect width="12" height="12" fill="white" transform="translate(14.123 7)"/>
</clipPath>
</defs>
</svg>
