<svg width="96" height="96" viewBox="0 0 96 96" fill="none" xmlns="http://www.w3.org/2000/svg">
<circle cx="48" cy="48" r="48" fill="#E8ECFD"/>
<circle cx="48" cy="48" r="36" fill="#4263EB"/>
<path d="M56 39.9993C55.1867 39.9993 54.44 39.5327 54.0667 38.8127L53.1067 36.8793C52.4934 35.666 50.8934 34.666 49.5334 34.666H46.48C45.1067 34.666 43.5067 35.666 42.8934 36.8793L41.9334 38.8127C41.56 39.5327 40.8134 39.9993 40 39.9993C37.1067 39.9993 34.8134 42.4393 35 45.3193L35.6934 56.3327C35.8534 59.0793 37.3334 61.3327 41.0134 61.3327H54.9867C58.6667 61.3327 60.1334 59.0793 60.3067 56.3327L61 45.3193C61.1867 42.4393 58.8934 39.9993 56 39.9993ZM46 41.666H50C50.5467 41.666 51 42.1193 51 42.666C51 43.2127 50.5467 43.666 50 43.666H46C45.4534 43.666 45 43.2127 45 42.666C45 42.1193 45.4534 41.666 46 41.666ZM48 56.1594C45.52 56.1594 43.4934 54.146 43.4934 51.6527C43.4934 49.1593 45.5067 47.146 48 47.146C50.4934 47.146 52.5067 49.1593 52.5067 51.6527C52.5067 54.146 50.48 56.1594 48 56.1594Z" fill="white"/>
</svg>
