<svg width="14" height="14" viewBox="0 0 14 14" fill="none" xmlns="http://www.w3.org/2000/svg">
<path d="M12.4007 5.1463C11.194 5.1463 10.7007 4.29297 11.3007 3.2463C11.6473 2.63963 11.4407 1.8663 10.834 1.51963L9.68065 0.859632C9.15399 0.546299 8.47398 0.732966 8.16065 1.25963L8.08732 1.3863C7.48732 2.43297 6.50065 2.43297 5.89398 1.3863L5.82065 1.25963C5.52065 0.732966 4.84065 0.546299 4.31398 0.859632L3.16065 1.51963C2.55398 1.8663 2.34732 2.6463 2.69398 3.25297C3.30065 4.29297 2.80732 5.1463 1.60065 5.1463C0.907318 5.1463 0.333984 5.71297 0.333984 6.41297V7.5863C0.333984 8.27963 0.900651 8.85297 1.60065 8.85297C2.80732 8.85297 3.30065 9.7063 2.69398 10.753C2.34732 11.3596 2.55398 12.133 3.16065 12.4796L4.31398 13.1396C4.84065 13.453 5.52065 13.2663 5.83398 12.7396L5.90732 12.613C6.50732 11.5663 7.49398 11.5663 8.10065 12.613L8.17398 12.7396C8.48732 13.2663 9.16732 13.453 9.69398 13.1396L10.8473 12.4796C11.454 12.133 11.6607 11.353 11.314 10.753C10.7073 9.7063 11.2007 8.85297 12.4073 8.85297C13.1007 8.85297 13.674 8.2863 13.674 7.5863V6.41297C13.6673 5.71963 13.1007 5.1463 12.4007 5.1463ZM7.00065 9.1663C5.80732 9.1663 4.83398 8.19297 4.83398 6.99963C4.83398 5.8063 5.80732 4.83297 7.00065 4.83297C8.19398 4.83297 9.16732 5.8063 9.16732 6.99963C9.16732 8.19297 8.19398 9.1663 7.00065 9.1663Z" fill="white"/>
</svg>
