<svg width="23" height="23" viewBox="0 0 23 23" fill="none" xmlns="http://www.w3.org/2000/svg">
<g clip-path="url(#clip0_1105_6376)">
<path d="M4.57826 10.1487C4.06371 9.69178 3.40187 9.43974 2.71656 9.43974C2.03124 9.43974 1.36941 9.69178 0.854846 10.1487V4.51291C0.852448 4.25758 0.899968 4.00429 0.994686 3.76753C1.0894 3.53077 1.22946 3.3152 1.40683 3.13317C1.5842 2.95113 1.7954 2.80621 2.02833 2.70669C2.26127 2.60717 2.51136 2.55502 2.76429 2.55322C3.24994 2.56518 3.71178 2.76807 4.05145 3.11867C4.39112 3.46928 4.58177 3.93989 4.58281 4.4303V10.1487H4.57826Z" fill="#551B73"/>
<path d="M22.1361 3.46158C22.1361 2.77143 21.8645 2.10955 21.3811 1.62154C20.8976 1.13353 20.242 0.859375 19.5583 0.859375H3.0507C3.76456 0.860584 4.44891 1.14707 4.95411 1.65621C5.4593 2.16534 5.74426 2.85569 5.74666 3.57631V18.446C5.74776 18.8894 5.8967 19.3194 6.16947 19.6668L7.82887 21.7917C7.91356 21.9057 8.02338 21.9982 8.14964 22.062C8.2759 22.1257 8.41512 22.1589 8.55627 22.1589C8.69743 22.1589 8.83665 22.1257 8.96291 22.062C9.08916 21.9982 9.19899 21.9057 9.28368 21.7917L10.5248 20.2038C10.6095 20.0898 10.7193 19.9973 10.8456 19.9335C10.9719 19.8698 11.1111 19.8366 11.2522 19.8366C11.3934 19.8366 11.5326 19.8698 11.6589 19.9335C11.7851 19.9973 11.8949 20.0898 11.9796 20.2038L13.2162 21.7917C13.3009 21.9057 13.4107 21.9982 13.537 22.062C13.6633 22.1257 13.8025 22.1589 13.9436 22.1589C14.0848 22.1589 14.224 22.1257 14.3503 22.062C14.4765 21.9982 14.5864 21.9057 14.671 21.7917L15.9122 20.2038C15.9969 20.0898 16.1067 19.9973 16.233 19.9335C16.3592 19.8698 16.4984 19.8366 16.6396 19.8366C16.7808 19.8366 16.92 19.8698 17.0462 19.9335C17.1725 19.9973 17.2823 20.0898 17.367 20.2038L18.6036 21.7917C18.6883 21.9057 18.7981 21.9982 18.9244 22.062C19.0506 22.1257 19.1898 22.1589 19.331 22.1589C19.4722 22.1589 19.6114 22.1257 19.7376 22.062C19.8639 21.9982 19.9737 21.9057 20.0584 21.7917L21.8769 19.4465C22.0374 19.2411 22.1254 18.9876 22.127 18.726L22.1361 3.46158ZM15.2575 15.1462H8.24258C8.06172 15.1462 7.88826 15.0737 7.76037 14.9446C7.63248 14.8155 7.56063 14.6404 7.56063 14.4578C7.56063 14.2753 7.63248 14.1002 7.76037 13.971C7.88826 13.8419 8.06172 13.7694 8.24258 13.7694H15.2575C15.4384 13.7694 15.6118 13.8419 15.7397 13.971C15.8676 14.1002 15.9395 14.2753 15.9395 14.4578C15.9395 14.6404 15.8676 14.8155 15.7397 14.9446C15.6118 15.0737 15.4384 15.1462 15.2575 15.1462ZM15.2575 12.5119H8.24258C8.06172 12.5119 7.88826 12.4394 7.76037 12.3103C7.63248 12.1812 7.56063 12.0061 7.56063 11.8235C7.56063 11.6409 7.63248 11.4658 7.76037 11.3367C7.88826 11.2076 8.06172 11.1351 8.24258 11.1351H15.2575C15.4384 11.1351 15.6118 11.2076 15.7397 11.3367C15.8676 11.4658 15.9395 11.6409 15.9395 11.8235C15.9395 12.0061 15.8676 12.1812 15.7397 12.3103C15.6118 12.4394 15.4384 12.5119 15.2575 12.5119ZM9.00636 7.98216C8.82549 7.98216 8.65204 7.90963 8.52415 7.78052C8.39626 7.65142 8.32441 7.47632 8.32441 7.29374C8.32441 7.11116 8.39626 6.93606 8.52415 6.80696C8.65204 6.67786 8.82549 6.60533 9.00636 6.60533H18.7673C18.9481 6.60533 19.1216 6.67786 19.2495 6.80696C19.3774 6.93606 19.4492 7.11116 19.4492 7.29374C19.4492 7.47632 19.3774 7.65142 19.2495 7.78052C19.1216 7.90963 18.9481 7.98216 18.7673 7.98216H9.00636ZM19.6402 15.1462H17.8535C17.6726 15.1462 17.4991 15.0737 17.3712 14.9446C17.2434 14.8155 17.1715 14.6404 17.1715 14.4578C17.1715 14.2753 17.2434 14.1002 17.3712 13.971C17.4991 13.8419 17.6726 13.7694 17.8535 13.7694H19.6402C19.821 13.7694 19.9945 13.8419 20.1224 13.971C20.2502 14.1002 20.3221 14.2753 20.3221 14.4578C20.3221 14.6404 20.2502 14.8155 20.1224 14.9446C19.9945 15.0737 19.821 15.1462 19.6402 15.1462ZM19.6402 12.5119H17.8535C17.6726 12.5119 17.4991 12.4394 17.3712 12.3103C17.2434 12.1812 17.1715 12.0061 17.1715 11.8235C17.1715 11.6409 17.2434 11.4658 17.3712 11.3367C17.4991 11.2076 17.6726 11.1351 17.8535 11.1351H19.6402C19.821 11.1351 19.9945 11.2076 20.1224 11.3367C20.2502 11.4658 20.3221 11.6409 20.3221 11.8235C20.3221 12.0061 20.2502 12.1812 20.1224 12.3103C19.9945 12.4394 19.821 12.5119 19.6402 12.5119Z" fill="#551B73"/>
</g>
<defs>
<clipPath id="clip0_1105_6376">
<rect width="21.2903" height="21.2903" fill="white" transform="translate(0.854843 0.85498)"/>
</clipPath>
</defs>
</svg>
