<svg width="23" height="23" viewBox="0 0 23 23" fill="none" xmlns="http://www.w3.org/2000/svg">
<path d="M13.8772 10.9157C13.8772 12.2285 12.8129 13.2928 11.5001 13.2928C10.1872 13.2928 9.12296 12.2285 9.12296 10.9157C9.12296 9.60284 10.1872 8.53857 11.5001 8.53857C12.8129 8.53857 13.8772 9.60284 13.8772 10.9157Z" fill="#551B73"/>
<path d="M20.1411 2.85881C19.7066 2.42461 19.1291 2.18555 18.5152 2.18555H4.485C3.871 2.18555 3.29353 2.42461 2.85875 2.8591C2.42455 3.29373 2.18549 3.87106 2.18549 4.48506V6.82351C2.18549 7.43751 2.42455 8.01484 2.85904 8.44975C3.29367 8.88396 3.871 9.12288 4.485 9.12288H4.60154V5.10844C4.60154 4.80712 4.84586 4.56266 5.14732 4.56266H17.853C18.1543 4.56266 18.3987 4.80712 18.3987 5.10844V9.12288H18.5152C19.1291 9.12288 19.7065 8.88382 20.1414 8.44933C20.5756 8.01484 20.8147 7.43737 20.8147 6.82351V4.48506C20.8147 3.87106 20.5756 3.29373 20.1411 2.85881Z" fill="#551B73"/>
<path d="M5.69295 19.0999C5.69295 19.5582 5.87146 19.9889 6.19509 20.3121C6.51886 20.6363 6.94951 20.8148 7.40788 20.8148H15.5923C16.0506 20.8148 16.4813 20.6363 16.8045 20.3127C17.1285 19.9889 17.307 19.5582 17.307 19.0999V5.6543H5.69295V19.0999ZM11.5001 7.44697C13.4127 7.44697 14.9687 9.00301 14.9687 10.9156C14.9687 12.8283 13.4127 14.3843 11.5001 14.3843C9.58743 14.3843 8.0314 12.8283 8.0314 10.9156C8.0314 9.00301 9.58743 7.44697 11.5001 7.44697ZM8.57718 16.8004H14.423C14.7244 16.8004 14.9687 17.0447 14.9687 17.3461C14.9687 17.6475 14.7244 17.8919 14.423 17.8919H8.57718C8.27572 17.8919 8.0314 17.6475 8.0314 17.3461C8.0314 17.0447 8.27572 16.8004 8.57718 16.8004Z" fill="#3C1450"/>
</svg>
