<svg width="32" height="32" viewBox="0 0 32 32" fill="none" xmlns="http://www.w3.org/2000/svg">
<g clip-path="url(#clip0_1767_9699)">
<path d="M9.33335 22.6667C14.488 22.6667 18.6667 18.488 18.6667 13.3333C18.6667 8.17868 14.488 4 9.33335 4C4.17869 4 1.53254e-05 8.17868 1.54077e-05 13.3333C1.54899e-05 18.488 4.17869 22.6667 9.33335 22.6667Z" fill="white" fill-opacity="0.7"/>
<path d="M22.6667 22.6667C27.8213 22.6667 32 18.488 32 13.3333C32 8.17868 27.8213 4 22.6667 4C17.512 4 13.3333 8.17868 13.3333 13.3333C13.3333 18.488 17.512 22.6667 22.6667 22.6667Z" fill="white" fill-opacity="0.5"/>
<path d="M31.3697 28.0078L31.3697 28.0694L31.4294 28.0694C31.4406 28.0696 31.4517 28.0669 31.4614 28.0616C31.4653 28.0589 31.4684 28.0554 31.4705 28.0513C31.4726 28.0471 31.4736 28.0426 31.4734 28.038C31.4736 28.0335 31.4726 28.029 31.4705 28.025C31.4684 28.021 31.4653 28.0175 31.4614 28.015C31.4518 28.0094 31.4406 28.0067 31.4294 28.0071L31.3697 28.0071L31.3697 28.0078ZM31.43 27.9641C31.4556 27.9626 31.481 27.9697 31.5017 27.9842C31.5101 27.9907 31.5167 27.9991 31.521 28.0086C31.5254 28.0181 31.5274 28.0284 31.5268 28.0388C31.5272 28.0477 31.5256 28.0566 31.5222 28.0648C31.5187 28.0731 31.5134 28.0806 31.5067 28.0867C31.4907 28.1001 31.4706 28.1082 31.4494 28.1097L31.5294 28.1976L31.4678 28.1976L31.3942 28.1103L31.3704 28.1103L31.3704 28.1976L31.3188 28.1976L31.3188 27.9643L31.4308 27.9643L31.43 27.9641ZM31.414 28.2781C31.4411 28.2784 31.4678 28.2731 31.4926 28.2627C31.5165 28.2528 31.5382 28.2386 31.5566 28.2209C31.575 28.2032 31.5898 28.1823 31.6 28.1592C31.621 28.1103 31.621 28.0554 31.6 28.0065C31.5896 27.9835 31.5749 27.9626 31.5566 27.9448C31.5382 27.9271 31.5165 27.9129 31.4926 27.903C31.4677 27.8932 31.441 27.8882 31.414 27.8885C31.3867 27.8883 31.3595 27.8932 31.334 27.903C31.3096 27.9127 31.2874 27.9269 31.2686 27.9448C31.2403 27.9728 31.2212 28.0082 31.2136 28.0466C31.206 28.085 31.2103 28.1247 31.2259 28.1608C31.2356 28.1839 31.2502 28.2049 31.2686 28.2225C31.2874 28.2403 31.3096 28.2545 31.334 28.2643C31.3593 28.2747 31.3866 28.2799 31.414 28.2797L31.414 28.2781ZM31.414 27.8324C31.4844 27.8323 31.5519 27.8589 31.602 27.9064C31.6262 27.9292 31.6455 27.9564 31.6587 27.9865C31.6724 28.0173 31.6794 28.0505 31.6794 28.084C31.6794 28.1176 31.6724 28.1507 31.6587 28.1816C31.6452 28.2114 31.626 28.2386 31.602 28.2616C31.5775 28.2843 31.5489 28.3026 31.5177 28.3156C31.4849 28.329 31.4497 28.3359 31.414 28.3357C31.378 28.3359 31.3423 28.3291 31.3091 28.3156C31.2775 28.3029 31.2487 28.2846 31.2241 28.2616C31.2002 28.2378 31.1813 28.2097 31.1683 28.179C31.1546 28.1481 31.1476 28.1149 31.1476 28.0814C31.1476 28.0479 31.1546 28.0147 31.1683 27.9838C31.1815 27.9538 31.2007 27.9266 31.2249 27.9038C31.2492 27.8804 31.2781 27.8621 31.3099 27.8498C31.3431 27.8363 31.3788 27.8295 31.4148 27.8298L31.414 27.8324ZM6.91485 26.9312C6.91485 26.4862 7.21725 26.1206 7.71149 26.1206C8.18381 26.1206 8.50253 26.4705 8.50253 26.9312C8.50253 27.3919 8.18381 27.7417 7.71149 27.7417C7.21725 27.7417 6.91485 27.3761 6.91485 26.9312ZM9.04093 26.9312L9.04093 25.6649L8.46989 25.6649L8.46989 25.9733C8.28877 25.7454 8.01405 25.6024 7.64045 25.6024C6.90445 25.6024 6.32685 26.1589 6.32685 26.9318C6.32685 27.7047 6.90413 28.2612 7.64045 28.2612C8.01389 28.2612 8.28877 28.118 8.46989 27.8902L8.46989 28.1976L9.04029 28.1976L9.04029 26.9312L9.04093 26.9312ZM28.3356 26.9312C28.3356 26.4862 28.638 26.1206 29.1324 26.1206C29.6052 26.1206 29.9235 26.4705 29.9235 26.9312C29.9235 27.3919 29.6052 27.7417 29.1324 27.7417C28.6382 27.7417 28.3356 27.3761 28.3356 26.9312ZM30.4624 26.9312L30.4624 24.6484L29.8908 24.6484L29.8908 25.9733C29.7097 25.7454 29.435 25.6024 29.0614 25.6024C28.3254 25.6024 27.7478 26.1589 27.7478 26.9318C27.7478 27.7047 28.3251 28.2612 29.0614 28.2612C29.435 28.2612 29.7097 28.118 29.8908 27.8902L29.8908 28.1976L30.4624 28.1976L30.4624 26.9312ZM16.1283 26.0946C16.4963 26.0946 16.7326 26.317 16.7929 26.7086L15.4304 26.7086C15.4913 26.3431 15.7216 26.0946 16.1284 26.0946L16.1283 26.0946ZM16.1398 25.601C15.3702 25.601 14.8318 26.1409 14.8318 26.9304C14.8318 27.7354 15.3918 28.2598 16.178 28.2598C16.5736 28.2598 16.9358 28.1646 17.2545 27.905L16.9747 27.4971C16.7545 27.6667 16.4742 27.7619 16.2107 27.7619C15.8427 27.7619 15.5076 27.5976 15.4252 27.1419L17.3752 27.1419C17.3808 27.0734 17.3865 27.0043 17.3865 26.9302C17.3808 26.141 16.8745 25.6009 16.1395 25.6009L16.1398 25.601ZM23.0339 26.9302C23.0339 26.4853 23.3363 26.1197 23.8305 26.1197C24.3028 26.1197 24.6216 26.4695 24.6216 26.9302C24.6216 27.391 24.3028 27.7408 23.8305 27.7408C23.3363 27.7408 23.0337 27.3752 23.0337 26.9302L23.0339 26.9302ZM25.1598 26.9302L25.1598 25.6649L24.5891 25.6649L24.5891 25.9733C24.4073 25.7454 24.1332 25.6024 23.7596 25.6024C23.0236 25.6024 22.446 26.1589 22.446 26.9318C22.446 27.7047 23.0233 28.2612 23.7596 28.2612C24.1332 28.2612 24.4073 28.118 24.5891 27.8902L24.5891 28.1976L25.16 28.1976L25.16 26.9312L25.1598 26.9302ZM19.8091 26.9302C19.8091 27.6982 20.3636 28.2596 21.21 28.2596C21.6056 28.2596 21.8691 28.1748 22.154 27.9578L21.8798 27.5128C21.6654 27.6613 21.4403 27.7408 21.1918 27.7408C20.736 27.7354 20.4008 27.4176 20.4008 26.9302C20.4008 26.4428 20.736 26.1253 21.1918 26.1197C21.4396 26.1197 21.6648 26.1992 21.8798 26.3477L22.154 25.9027C21.8686 25.6857 21.6051 25.6009 21.21 25.6009C20.3636 25.6009 19.8091 26.1621 19.8091 26.9302ZM27.1707 25.6009C26.8412 25.6009 26.6267 25.7494 26.4784 25.9718L26.4784 25.6649L25.9124 25.6649L25.9124 28.1962L26.4841 28.1962L26.4841 26.7772C26.4841 26.3583 26.6708 26.1256 27.0441 26.1256C27.1664 26.1239 27.2877 26.1455 27.4012 26.1893L27.5772 25.6704C27.4508 25.6225 27.286 25.6013 27.1704 25.6013L27.1707 25.6009ZM11.8641 25.8662C11.5894 25.6916 11.2108 25.6013 10.7932 25.6013C10.128 25.6013 9.69965 25.9087 9.69965 26.4117C9.69965 26.8244 10.0185 27.0791 10.6057 27.1585L10.8755 27.1955C11.1886 27.2379 11.3364 27.3174 11.3364 27.4604C11.3364 27.6561 11.1284 27.7678 10.7379 27.7678C10.3424 27.7678 10.0569 27.6459 9.86445 27.5029L9.59613 27.9322C9.90925 28.1546 10.3048 28.2607 10.7331 28.2607C11.4915 28.2607 11.931 27.9164 11.931 27.4344C11.931 26.9895 11.5851 26.7567 11.0136 26.6773L10.7444 26.6397C10.4972 26.6088 10.2992 26.5608 10.2992 26.3912C10.2992 26.2061 10.4859 26.0947 10.7992 26.0947C11.1344 26.0947 11.4588 26.2166 11.6179 26.3117L11.8651 25.8668L11.8641 25.8662ZM19.2323 25.6018C18.9028 25.6018 18.6883 25.7503 18.5406 25.9727L18.5406 25.6649L17.9747 25.6649L17.9747 28.1962L18.5457 28.1962L18.5457 26.7772C18.5457 26.3583 18.7324 26.1256 19.1057 26.1256C19.228 26.1239 19.3493 26.1455 19.4628 26.1893L19.6388 25.6704C19.5124 25.6225 19.3476 25.6013 19.232 25.6013L19.2323 25.6018ZM14.3593 25.6649L13.4256 25.6649L13.4256 24.8969L12.8483 24.8969L12.8483 25.6649L12.3156 25.6649L12.3156 26.168L12.8483 26.168L12.8483 27.3228C12.8483 27.9101 13.0848 28.2599 13.7603 28.2599C14.0081 28.2599 14.2936 28.1859 14.4747 28.0642L14.3097 27.5929C14.1393 27.688 13.9526 27.736 13.8041 27.736C13.5187 27.736 13.4256 27.5663 13.4256 27.3123L13.4256 26.1685L14.3593 26.1685L14.3593 25.6649ZM5.82189 28.1968L5.82189 26.6082C5.82189 26.0099 5.42637 25.6073 4.78877 25.6019C4.45357 25.5965 4.10781 25.6971 3.86573 26.0523C3.68461 25.7716 3.39917 25.6019 2.99789 25.6019C2.71741 25.6019 2.44333 25.6814 2.22877 25.9778L2.22877 25.6649L1.65725 25.6649L1.65725 28.1962L2.23325 28.1962L2.23325 26.7927C2.23325 26.3532 2.48605 26.1197 2.87645 26.1197C3.25565 26.1197 3.44749 26.358 3.44749 26.7871L3.44749 28.1959L4.02477 28.1959L4.02477 26.7924C4.02477 26.3529 4.28829 26.1194 4.66733 26.1194C5.05725 26.1194 5.24333 26.3577 5.24333 26.7868L5.24333 28.1956L5.82189 28.1968Z" fill="white"/>
</g>
<defs>
<clipPath id="clip0_1767_9699">
<rect width="32" height="32" fill="white"/>
</clipPath>
</defs>
</svg>
