<svg width="16" height="16" viewBox="0 0 16 16" fill="none" xmlns="http://www.w3.org/2000/svg">
<path d="M14.6673 5.03425C14.6673 5.47425 14.3073 5.83424 13.8673 5.83424H2.13398C1.69398 5.83424 1.33398 5.47425 1.33398 5.03425V5.02758C1.33398 3.50091 2.56732 2.26758 4.09398 2.26758H11.9007C13.4273 2.26758 14.6673 3.50758 14.6673 5.03425Z" fill="white"/>
<path d="M1.33398 7.63398V10.974C1.33398 12.5006 2.56732 13.734 4.09398 13.734H11.9007C13.4273 13.734 14.6673 12.494 14.6673 10.9673V7.63398C14.6673 7.19398 14.3073 6.83398 13.8673 6.83398H2.13398C1.69398 6.83398 1.33398 7.19398 1.33398 7.63398ZM5.33398 11.5007H4.00065C3.72732 11.5007 3.50065 11.274 3.50065 11.0007C3.50065 10.7273 3.72732 10.5007 4.00065 10.5007H5.33398C5.60732 10.5007 5.83398 10.7273 5.83398 11.0007C5.83398 11.274 5.60732 11.5007 5.33398 11.5007ZM9.66732 11.5007H7.00065C6.72732 11.5007 6.50065 11.274 6.50065 11.0007C6.50065 10.7273 6.72732 10.5007 7.00065 10.5007H9.66732C9.94065 10.5007 10.1673 10.7273 10.1673 11.0007C10.1673 11.274 9.94065 11.5007 9.66732 11.5007Z" fill="white"/>
</svg>
