<svg width="19" height="19" viewBox="0 0 19 19" fill="none" xmlns="http://www.w3.org/2000/svg">
<path fill-rule="evenodd" clip-rule="evenodd" d="M5.77988 0.530703C6.74211 0.486406 7.04891 0.476562 9.5 0.476562C11.9511 0.476562 12.2579 0.487227 13.2193 0.530703C14.1807 0.57418 14.837 0.727578 15.4112 0.949883C16.0125 1.17711 16.558 1.5323 17.0091 1.99168C17.4685 2.44203 17.8229 2.98672 18.0493 3.58883C18.2724 4.16305 18.425 4.8193 18.4693 5.77906C18.5136 6.74293 18.5234 7.04973 18.5234 9.5C18.5234 11.9511 18.5128 12.2579 18.4693 13.2201C18.4258 14.1799 18.2724 14.8361 18.0493 15.4104C17.8229 16.0125 17.4679 16.5581 17.0091 17.0091C16.558 17.4685 16.0125 17.8229 15.4112 18.0493C14.837 18.2724 14.1807 18.425 13.2209 18.4693C12.2579 18.5136 11.9511 18.5234 9.5 18.5234C7.04891 18.5234 6.74211 18.5128 5.77988 18.4693C4.82012 18.4258 4.16387 18.2724 3.58965 18.0493C2.98747 17.8229 2.44188 17.4679 1.99086 17.0091C1.5318 16.5585 1.17655 16.0132 0.949883 15.4112C0.727578 14.837 0.575 14.1807 0.530703 13.2209C0.486406 12.2571 0.476562 11.9503 0.476562 9.5C0.476562 7.04891 0.487227 6.74211 0.530703 5.7807C0.57418 4.8193 0.727578 4.16305 0.949883 3.58883C1.17688 2.98679 1.5324 2.44147 1.99168 1.99086C2.44206 1.5319 2.98711 1.17665 3.58883 0.949883C4.16305 0.727578 4.8193 0.575 5.77906 0.530703H5.77988ZM13.1463 2.15492C12.1947 2.11145 11.9093 2.10242 9.5 2.10242C7.09074 2.10242 6.80527 2.11145 5.85371 2.15492C4.97352 2.19512 4.49609 2.34195 4.17781 2.46582C3.75699 2.62988 3.45594 2.8243 3.14012 3.14012C2.84074 3.43137 2.61034 3.78593 2.46582 4.17781C2.34195 4.49609 2.19512 4.97352 2.15492 5.85371C2.11145 6.80527 2.10242 7.09074 2.10242 9.5C2.10242 11.9093 2.11145 12.1947 2.15492 13.1463C2.19512 14.0265 2.34195 14.5039 2.46582 14.8222C2.6102 15.2135 2.8407 15.5687 3.14012 15.8599C3.43133 16.1593 3.78652 16.3898 4.17781 16.5342C4.49609 16.658 4.97352 16.8049 5.85371 16.8451C6.80527 16.8886 7.08992 16.8976 9.5 16.8976C11.9101 16.8976 12.1947 16.8886 13.1463 16.8451C14.0265 16.8049 14.5039 16.658 14.8222 16.5342C15.243 16.3701 15.5441 16.1757 15.8599 15.8599C16.1593 15.5687 16.3898 15.2135 16.5342 14.8222C16.658 14.5039 16.8049 14.0265 16.8451 13.1463C16.8886 12.1947 16.8976 11.9093 16.8976 9.5C16.8976 7.09074 16.8886 6.80527 16.8451 5.85371C16.8049 4.97352 16.658 4.49609 16.5342 4.17781C16.3701 3.75699 16.1757 3.45594 15.8599 3.14012C15.5686 2.84076 15.2141 2.61037 14.8222 2.46582C14.5039 2.34195 14.0265 2.19512 13.1463 2.15492ZM8.34746 12.2817C8.99113 12.5496 9.70785 12.5858 10.3752 12.384C11.0426 12.1822 11.6192 11.755 12.0066 11.1753C12.3939 10.5956 12.568 9.89939 12.4991 9.20559C12.4302 8.5118 12.1225 7.86345 11.6287 7.37129C11.3139 7.05668 10.9333 6.81578 10.5142 6.66594C10.0951 6.5161 9.64801 6.46104 9.20509 6.50472C8.76218 6.54841 8.33446 6.68975 7.95273 6.91858C7.571 7.14741 7.24475 7.45803 6.99747 7.82808C6.7502 8.19813 6.58805 8.6184 6.52269 9.05864C6.45733 9.49888 6.4904 9.94813 6.61951 10.3741C6.74861 10.8 6.97055 11.192 7.26934 11.5218C7.56813 11.8517 7.93634 12.1112 8.34746 12.2817ZM6.22039 6.22039C6.65107 5.78971 7.16237 5.44807 7.72509 5.21498C8.2878 4.9819 8.89092 4.86193 9.5 4.86193C10.1091 4.86193 10.7122 4.9819 11.2749 5.21498C11.8376 5.44807 12.3489 5.78971 12.7796 6.22039C13.2103 6.65107 13.5519 7.16237 13.785 7.72509C14.0181 8.2878 14.1381 8.89092 14.1381 9.5C14.1381 10.1091 14.0181 10.7122 13.785 11.2749C13.5519 11.8376 13.2103 12.3489 12.7796 12.7796C11.9098 13.6494 10.7301 14.1381 9.5 14.1381C8.26991 14.1381 7.0902 13.6494 6.22039 12.7796C5.35058 11.9098 4.86193 10.7301 4.86193 9.5C4.86193 8.26991 5.35058 7.0902 6.22039 6.22039ZM15.1667 5.55266C15.2734 5.45198 15.3589 5.33091 15.418 5.19662C15.4771 5.06233 15.5086 4.91754 15.5108 4.77084C15.5129 4.62414 15.4856 4.4785 15.4304 4.34254C15.3753 4.20658 15.2934 4.08308 15.1897 3.97933C15.0859 3.87558 14.9624 3.79371 14.8264 3.73855C14.6905 3.68339 14.5448 3.65607 14.3981 3.65821C14.2514 3.66035 14.1067 3.6919 13.9724 3.751C13.8381 3.8101 13.717 3.89554 13.6163 4.00227C13.4205 4.20983 13.3133 4.48553 13.3175 4.77084C13.3216 5.05615 13.4368 5.32861 13.6386 5.53038C13.8404 5.73215 14.1128 5.84734 14.3981 5.8515C14.6835 5.85565 14.9592 5.74846 15.1667 5.55266Z" fill="#C172E9"/>
</svg>
