<svg width="35" height="35" viewBox="0 0 35 35" fill="none" xmlns="http://www.w3.org/2000/svg">
<path d="M32.7143 20.6431C33.0166 21.0101 33.1634 21.4808 33.1234 21.9546C33.0834 22.4284 32.8596 22.8678 32.5 23.1788L27.4286 27.3931C25.524 28.9908 23.0909 29.8188 20.6071 29.7145L13.25 29.3574C12.4258 29.3159 11.5996 29.3638 10.7857 29.5002L7.71429 30.0717H7.5V21.0002H7.64286L10.8214 19.4645C12.4235 18.6141 14.2237 18.2072 16.0357 18.286L20.8929 18.5002H21C21.4387 18.4971 21.8632 18.6555 22.1926 18.9454C22.5219 19.2352 22.7331 19.6361 22.7857 20.0717C22.8391 20.5283 22.7178 20.9882 22.4463 21.3592C22.1747 21.7301 21.7729 21.9846 21.3214 22.0717L17.7143 22.7503C17.5446 22.7829 17.3854 22.856 17.2501 22.9634C17.1149 23.0709 17.0076 23.2094 16.9374 23.3673C16.8673 23.5251 16.8363 23.6976 16.8472 23.87C16.8581 24.0424 16.9105 24.2096 17 24.3574L17.3929 25.036C17.4824 25.2005 17.6178 25.3354 17.7827 25.4242C17.9476 25.5129 18.1348 25.5518 18.3214 25.536L21.8214 25.4288C23.1366 25.3982 24.4048 24.9336 25.4286 24.1074L30.1071 20.3217C30.491 20.0145 30.981 19.8721 31.4698 19.9256C31.9585 19.9792 32.406 20.2244 32.7143 20.6074V20.6431Z" fill="#EDB288"/>
<path d="M31.7143 6.46456V14.7503C31.7144 15.1041 31.5763 15.444 31.3295 15.6975C31.0827 15.951 30.7466 16.0981 30.3929 16.1074H14.5C14.1463 16.0981 13.8102 15.951 13.5634 15.6975C13.3165 15.444 13.1785 15.1041 13.1786 14.7503V13.1789H27.6429C27.9966 13.1695 28.3327 13.0225 28.5795 12.7689C28.8263 12.5154 28.9644 12.1755 28.9643 11.8217V5.10742H30.3929C30.7466 5.11673 31.0827 5.26382 31.3295 5.51733C31.5763 5.77084 31.7144 6.11073 31.7143 6.46456Z" fill="#2BA037"/>
<path d="M28.9643 5.10728V11.8216C28.9644 12.1754 28.8263 12.5153 28.5795 12.7688C28.3327 13.0223 27.9966 13.1694 27.6429 13.1787H11.75C11.3963 13.1694 11.0602 13.0223 10.8134 12.7688C10.5665 12.5153 10.4285 12.1754 10.4286 11.8216V3.53585C10.4285 3.18202 10.5665 2.84213 10.8134 2.58862C11.0602 2.33511 11.3963 2.18802 11.75 2.17871H27.6429C27.9966 2.18802 28.3327 2.33511 28.5795 2.58862C28.8263 2.84213 28.9644 3.18202 28.9643 3.53585V5.10728Z" fill="#3BB54A"/>
<path d="M7.5 30.0718V31.3933C7.5 31.7722 7.34949 32.1355 7.08158 32.4034C6.81368 32.6713 6.45031 32.8218 6.07143 32.8218H3.28572C2.90684 32.8218 2.54348 32.6713 2.27557 32.4034C2.00766 32.1355 1.85715 31.7722 1.85715 31.3933V20.9647C1.85715 20.5858 2.00766 20.2225 2.27557 19.9546C2.54348 19.6866 2.90684 19.5361 3.28572 19.5361H6.07143C6.45031 19.5361 6.81368 19.6866 7.08158 19.9546C7.34949 20.2225 7.5 20.5858 7.5 20.9647V30.0718Z" fill="#00ACEA"/>
<path d="M26.1786 9.4646C26.3693 9.4646 26.5557 9.52115 26.7143 9.62711C26.8729 9.73306 26.9965 9.88367 27.0695 10.0599C27.1424 10.2361 27.1615 10.43 27.1243 10.617C27.0871 10.8041 26.9953 10.9759 26.8604 11.1107C26.7256 11.2456 26.5537 11.3374 26.3667 11.3746C26.1796 11.4118 25.9858 11.3927 25.8096 11.3198C25.6334 11.2468 25.4828 11.1232 25.3768 10.9646C25.2708 10.806 25.2143 10.6196 25.2143 10.4289C25.2143 10.1731 25.3159 9.92787 25.4967 9.74703C25.6776 9.56619 25.9228 9.4646 26.1786 9.4646ZM19.7143 3.92888C20.4544 3.93593 21.1759 4.16184 21.7879 4.57816C22.3998 4.99447 22.8749 5.58258 23.1533 6.26839C23.4316 6.95421 23.5008 7.70706 23.3521 8.43212C23.2034 9.15718 22.8435 9.82202 22.3176 10.3429C21.7918 10.8638 21.1236 11.2174 20.3971 11.3592C19.6707 11.501 18.9185 11.4247 18.2354 11.1399C17.5522 10.855 16.9687 10.3744 16.5582 9.75851C16.1477 9.14262 15.9286 8.41903 15.9286 7.67888C15.9286 7.1834 16.0267 6.69284 16.2174 6.23552C16.4081 5.77821 16.6875 5.36321 17.0395 5.01452C17.3915 4.66583 17.8092 4.39036 18.2683 4.20402C18.7274 4.01768 19.2188 3.92416 19.7143 3.92888Z" fill="#2BA037"/>
<path d="M13.2143 5.85728C13.7468 5.85728 14.1786 5.42556 14.1786 4.893C14.1786 4.36044 13.7468 3.92871 13.2143 3.92871C12.6817 3.92871 12.25 4.36044 12.25 4.893C12.25 5.42556 12.6817 5.85728 13.2143 5.85728Z" fill="#2BA037"/>
</svg>
