<svg width="20" height="17" viewBox="0 0 20 17" fill="none" xmlns="http://www.w3.org/2000/svg">
<path d="M19.0509 2.70625C18.3659 3.00976 17.6301 3.21484 16.8566 3.30753C17.6547 2.82994 18.2519 2.07827 18.5366 1.19277C17.7867 1.63819 16.9659 1.95172 16.1101 2.11972C15.5345 1.5052 14.7722 1.09788 13.9414 0.961009C13.1107 0.824138 12.258 0.965371 11.5157 1.36278C10.7734 1.76019 10.1831 2.39154 9.83645 3.15882C9.48977 3.92609 9.4061 4.78635 9.59844 5.60605C8.07896 5.52976 6.59251 5.13482 5.23554 4.44687C3.87858 3.75892 2.68143 2.79333 1.72179 1.61277C1.39367 2.17878 1.205 2.83503 1.205 3.53394C1.20463 4.16312 1.35957 4.78266 1.65607 5.33759C1.95257 5.89252 2.38146 6.36569 2.90469 6.71511C2.29788 6.69581 1.70446 6.53184 1.17383 6.23687V6.28609C1.17377 7.16853 1.47901 8.02382 2.03777 8.70683C2.59652 9.38984 3.37437 9.85849 4.23933 10.0333C3.67642 10.1856 3.08625 10.2081 2.5134 10.0989C2.75744 10.8582 3.23281 11.5222 3.87296 11.9979C4.5131 12.4736 5.28598 12.7372 6.0834 12.7518C4.72974 13.8144 3.05799 14.3909 1.33707 14.3883C1.03222 14.3884 0.727639 14.3706 0.424881 14.335C2.17172 15.4581 4.20516 16.0542 6.28191 16.0519C13.312 16.0519 17.1552 10.2293 17.1552 5.17949C17.1552 5.01543 17.1511 4.84972 17.1437 4.68566C17.8912 4.14505 18.5365 3.47561 19.0493 2.70871L19.0509 2.70625Z" fill="#C172E9"/>
</svg>
