<svg width="48" height="48" viewBox="0 0 48 48" fill="none" xmlns="http://www.w3.org/2000/svg">
<circle cx="24" cy="24" r="23.5" stroke="#F8F2FB"/>
<path d="M14.58 31.0093L14.56 31.0293C14.29 30.4393 14.12 29.7693 14.05 29.0293C14.12 29.7593 14.31 30.4193 14.58 31.0093Z" fill="#551B73"/>
<path d="M21 22.3791C22.3144 22.3791 23.38 21.3136 23.38 19.9991C23.38 18.6847 22.3144 17.6191 21 17.6191C19.6856 17.6191 18.62 18.6847 18.62 19.9991C18.62 21.3136 19.6856 22.3791 21 22.3791Z" fill="#551B73"/>
<path d="M28.19 14H19.81C16.17 14 14 16.17 14 19.81V28.19C14 29.28 14.19 30.23 14.56 31.03C15.42 32.93 17.26 34 19.81 34H28.19C31.83 34 34 31.83 34 28.19V25.9V19.81C34 16.17 31.83 14 28.19 14ZM32.37 24.5C31.59 23.83 30.33 23.83 29.55 24.5L25.39 28.07C24.61 28.74 23.35 28.74 22.57 28.07L22.23 27.79C21.52 27.17 20.39 27.11 19.59 27.65L15.85 30.16C15.63 29.6 15.5 28.95 15.5 28.19V19.81C15.5 16.99 16.99 15.5 19.81 15.5H28.19C31.01 15.5 32.5 16.99 32.5 19.81V24.61L32.37 24.5Z" fill="#551B73"/>
</svg>
