<svg width="198" height="158" viewBox="0 0 198 158" fill="none" xmlns="http://www.w3.org/2000/svg">
<path d="M102.951 130.749C131.163 130.749 154.033 107.58 154.033 78.9996C154.033 50.4191 131.163 27.25 102.951 27.25C74.7385 27.25 51.8681 50.4191 51.8681 78.9996C51.8681 107.58 74.7385 130.749 102.951 130.749Z" fill="#DBE8EC"/>
<path d="M171.981 68.1699V62.5813C171.981 61.5157 171.563 60.4936 170.819 59.7401C170.075 58.9865 169.066 58.5632 168.014 58.5632H154.015C152.963 58.5632 151.954 58.1398 151.21 57.3863C150.466 56.6327 150.048 55.6107 150.048 54.545V48.9565C150.048 47.8908 150.466 46.8688 151.21 46.1152C151.954 45.3617 152.963 44.9383 154.015 44.9383H154.457C155.509 44.9383 156.517 44.515 157.261 43.7614C158.005 43.0079 158.423 41.9859 158.423 40.9202V35.3316C158.423 34.266 158.005 33.2439 157.261 32.4904C156.517 31.7368 155.509 31.3135 154.457 31.3135H52.7397C51.6877 31.3135 50.6789 31.7368 49.935 32.4904C49.1912 33.2439 48.7733 34.266 48.7733 35.3316V40.9202C48.7733 41.9859 49.1912 43.0079 49.935 43.7614C50.6789 44.515 51.6877 44.9383 52.7397 44.9383C53.7916 44.9383 54.8005 45.3617 55.5443 46.1152C56.2881 46.8688 56.706 47.8908 56.706 48.9565V54.545C56.706 55.6107 56.2881 56.6327 55.5443 57.3863C54.8005 58.1398 53.7916 58.5632 52.7397 58.5632H37.4014C36.3495 58.5632 35.3406 58.9865 34.5968 59.7401C33.8529 60.4936 33.4351 61.5157 33.4351 62.5813V68.1699C33.4351 69.2356 33.8529 70.2576 34.5968 71.0111C35.3406 71.7647 36.3495 72.188 37.4014 72.188H43.4199C43.9408 72.188 44.4565 72.292 44.9378 72.4939C45.419 72.6958 45.8562 72.9918 46.2245 73.3649C46.5929 73.738 46.885 74.181 47.0844 74.6685C47.2837 75.156 47.3863 75.6785 47.3863 76.2062V81.7947C47.3863 82.8604 46.9684 83.8825 46.2246 84.636C45.4807 85.3896 44.4719 85.8129 43.4199 85.8129H43.4054C42.3534 85.8129 41.3446 86.2362 40.6007 86.9898C39.8569 87.7433 39.439 88.7654 39.439 89.8311V95.4196C39.439 96.4853 39.8569 97.5073 40.6007 98.2608C41.3446 99.0144 42.3534 99.4377 43.4054 99.4377H44.2761C44.797 99.4377 45.3128 99.5417 45.794 99.7436C46.2752 99.9455 46.7125 100.242 47.0808 100.615C47.4491 100.988 47.7412 101.431 47.9406 101.918C48.1399 102.406 48.2425 102.928 48.2425 103.456V109.044C48.2425 110.11 47.8246 111.132 47.0807 111.886C46.3369 112.639 45.3281 113.063 44.2761 113.063H29.9856C28.9336 113.063 27.9248 113.486 27.1809 114.24C26.4371 114.993 26.0192 116.015 26.0192 117.081V122.669C26.0192 123.735 26.4371 124.757 27.1809 125.511C27.9248 126.264 28.9336 126.687 29.9856 126.687H156.586C157.638 126.687 158.647 126.264 159.391 125.511C160.134 124.757 160.552 123.735 160.552 122.669V117.081C160.552 116.015 160.134 114.993 159.391 114.239C158.647 113.486 157.638 113.063 156.586 113.063H153.147C152.095 113.063 151.086 112.639 150.342 111.886C149.599 111.132 149.181 110.11 149.181 109.044V103.456C149.181 102.39 149.599 101.368 150.342 100.615C151.086 99.8611 152.095 99.4378 153.147 99.4378H161.256C162.308 99.4378 163.317 99.0144 164.061 98.2608C164.804 97.5073 165.222 96.4853 165.222 95.4196V89.8311C165.222 88.7654 164.804 87.7433 164.061 86.9898C163.317 86.2362 162.308 85.8129 161.256 85.8129H158.796C157.744 85.8129 156.735 85.3896 155.991 84.636C155.248 83.8825 154.83 82.8604 154.83 81.7947V76.2062C154.83 75.1405 155.248 74.1185 155.991 73.3649C156.735 72.6114 157.744 72.188 158.796 72.188H168.014C169.066 72.188 170.075 71.7647 170.819 71.0111C171.563 70.2576 171.981 69.2356 171.981 68.1699Z" fill="#FCF7FF"/>
<path d="M117.208 28.4395H127.048" stroke="#B9D4DB" stroke-width="3" stroke-miterlimit="10" stroke-linecap="round"/>
<path d="M117.208 31.3135H127.048" stroke="#B9D4DB" stroke-width="3" stroke-miterlimit="10" stroke-linecap="round"/>
<path d="M117.208 34.1865H127.048" stroke="#B9D4DB" stroke-width="3" stroke-miterlimit="10" stroke-linecap="round"/>
<path d="M36.2958 89.4639H46.1358" stroke="#B9D4DB" stroke-width="3" stroke-miterlimit="10" stroke-linecap="round"/>
<path d="M36.2958 92.3369H46.1358" stroke="#B9D4DB" stroke-width="3" stroke-miterlimit="10" stroke-linecap="round"/>
<path d="M36.2958 95.21H46.1358" stroke="#B9D4DB" stroke-width="3" stroke-miterlimit="10" stroke-linecap="round"/>
<path d="M154.033 115.796H163.873" stroke="#B9D4DB" stroke-width="3" stroke-miterlimit="10" stroke-linecap="round"/>
<path d="M154.033 118.669H163.873" stroke="#B9D4DB" stroke-width="3" stroke-miterlimit="10" stroke-linecap="round"/>
<path d="M154.033 121.542H163.873" stroke="#B9D4DB" stroke-width="3" stroke-miterlimit="10" stroke-linecap="round"/>
<path d="M166.558 66.7041C168.88 66.7041 170.763 64.7965 170.763 62.4434C170.763 60.0902 168.88 58.1826 166.558 58.1826C164.235 58.1826 162.352 60.0902 162.352 62.4434C162.352 64.7965 164.235 66.7041 166.558 66.7041Z" fill="#B9D4DB"/>
<path d="M155.459 67.727C156.663 67.727 157.639 66.7379 157.639 65.5178C157.639 64.2977 156.663 63.3086 155.459 63.3086C154.254 63.3086 153.278 64.2977 153.278 65.5178C153.278 66.7379 154.254 67.727 155.459 67.727Z" fill="#B9D4DB"/>
<path d="M160.996 55.1739C162.717 55.1739 164.112 53.7608 164.112 52.0176C164.112 50.2744 162.717 48.8613 160.996 48.8613C159.276 48.8613 157.881 50.2744 157.881 52.0176C157.881 53.7608 159.276 55.1739 160.996 55.1739Z" fill="#B9D4DB"/>
<path d="M50.0727 125.237C52.8364 125.237 55.0769 122.967 55.0769 120.167C55.0769 117.367 52.8364 115.098 50.0727 115.098C47.3089 115.098 45.0685 117.367 45.0685 120.167C45.0685 122.967 47.3089 125.237 50.0727 125.237Z" fill="#B9D4DB"/>
<path d="M40.1779 125.337C41.6174 125.337 42.7844 124.155 42.7844 122.696C42.7844 121.238 41.6174 120.056 40.1779 120.056C38.7383 120.056 37.5713 121.238 37.5713 122.696C37.5713 124.155 38.7383 125.337 40.1779 125.337Z" fill="#B9D4DB"/>
<path d="M37.1165 115.454C37.9469 115.454 38.62 114.772 38.62 113.93C38.62 113.089 37.9469 112.407 37.1165 112.407C36.2861 112.407 35.6129 113.089 35.6129 113.93C35.6129 114.772 36.2861 115.454 37.1165 115.454Z" fill="#B9D4DB"/>
<path d="M44.5716 113.68C46.5623 113.68 48.1761 112.045 48.1761 110.029C48.1761 108.012 46.5623 106.377 44.5716 106.377C42.5809 106.377 40.9671 108.012 40.9671 110.029C40.9671 112.045 42.5809 113.68 44.5716 113.68Z" fill="#B9D4DB"/>
<path d="M76.2848 46.8726C79.0486 46.8726 81.2891 44.6028 81.2891 41.803C81.2891 39.0031 79.0486 36.7334 76.2848 36.7334C73.5211 36.7334 71.2806 39.0031 71.2806 41.803C71.2806 44.6028 73.5211 46.8726 76.2848 46.8726Z" fill="#B9D4DB"/>
<path d="M76.4877 34.1074C77.9273 34.1074 79.0943 32.9252 79.0943 31.4668C79.0943 30.0084 77.9273 28.8262 76.4877 28.8262C75.0481 28.8262 73.8811 30.0084 73.8811 31.4668C73.8811 32.9252 75.0481 34.1074 76.4877 34.1074Z" fill="#B9D4DB"/>
<path d="M93.8493 35.2955C95.0952 35.2955 96.1053 34.2723 96.1053 33.0101C96.1053 31.7478 95.0952 30.7246 93.8493 30.7246C92.6033 30.7246 91.5933 31.7478 91.5933 33.0101C91.5933 34.2723 92.6033 35.2955 93.8493 35.2955Z" fill="#B9D4DB"/>
<path d="M85.6417 32.3121C86.4721 32.3121 87.1453 31.6301 87.1453 30.7888C87.1453 29.9476 86.4721 29.2656 85.6417 29.2656C84.8113 29.2656 84.1381 29.9476 84.1381 30.7888C84.1381 31.6301 84.8113 32.3121 85.6417 32.3121Z" fill="#B9D4DB"/>
<path d="M87.389 42.7544C89.3797 42.7544 90.9935 41.1195 90.9935 39.1028C90.9935 37.086 89.3797 35.4512 87.389 35.4512C85.3983 35.4512 83.7845 37.086 83.7845 39.1028C83.7845 41.1195 85.3983 42.7544 87.389 42.7544Z" fill="#B9D4DB"/>
<path d="M147.423 89.9737L114.156 108.127V66.9489L147.423 56.4277V89.9737Z" fill="#A2A0A8"/>
<path d="M114.156 66.9494L74.8843 62.9247L66.8358 50.8954C66.7427 50.7562 66.6887 50.5939 66.6798 50.426C66.6708 50.2581 66.7072 50.0908 66.7849 49.9423C66.8627 49.7937 66.9789 49.6694 67.1212 49.5827C67.2634 49.496 67.4263 49.4502 67.5923 49.4502H104.586C104.753 49.4502 104.917 49.4966 105.06 49.5843C105.203 49.672 105.319 49.7976 105.396 49.9476L114.156 66.9494Z" fill="#A2A0A8"/>
<path d="M74.8843 104.103L61.1693 101.212C60.9636 101.169 60.779 101.055 60.6465 100.89C60.5139 100.725 60.4416 100.519 60.4416 100.306V61.0186C60.4416 60.881 60.4718 60.7451 60.5302 60.6209C60.5885 60.4967 60.6734 60.3871 60.7788 60.3003C60.8842 60.2135 61.0073 60.1516 61.1392 60.1191C61.2712 60.0865 61.4086 60.0842 61.5416 60.1122L74.8843 62.9247V104.103ZM127.396 112.593L114.156 108.128V66.9494L127.973 71.6096C128.155 71.671 128.313 71.7888 128.426 71.9465C128.538 72.1042 128.598 72.2936 128.598 72.488V111.715C128.598 111.862 128.564 112.006 128.498 112.137C128.432 112.267 128.336 112.38 128.219 112.466C128.101 112.552 127.966 112.608 127.823 112.63C127.679 112.652 127.533 112.64 127.396 112.593Z" fill="#A2A0A8"/>
<path d="M114.156 108.128L74.8842 104.103V62.9248L114.156 66.9495V108.128Z" fill="#DCDBE0"/>
<path d="M104.169 119.145L64.0991 117.525L74.8843 104.103L114.156 108.127L104.893 118.83C104.803 118.934 104.692 119.016 104.566 119.071C104.441 119.125 104.305 119.15 104.169 119.145Z" fill="#A2A0A8"/>
<path d="M114.156 66.9495L147.423 56.4283L106.759 52.5938L114.156 66.9495Z" fill="#DCDBE0"/>
<path d="M74.8842 104.103L114.156 85.5265V66.9495L74.8842 62.9248V104.103Z" fill="#CCCACF"/>
<path d="M77.239 90.6846C77.239 90.6846 81.5294 88.783 82.669 90.1413C83.8087 91.4995 86.3561 92.1108 86.3561 92.1108L88.5683 88.3076L94.6017 91.16L97.8866 95.7102L95.7414 101.075C95.7414 101.075 91.3839 101.007 89.3058 101.89C87.2276 102.773 81.7975 102.841 81.7975 102.841L79.3171 98.0192C79.3171 98.0192 76.1664 93.3332 77.239 90.6846Z" fill="#DBE8EC"/>
<path d="M86.3561 92.1108C86.7687 92.4811 87.1651 92.8653 87.5535 93.2561C87.9452 93.6441 88.3223 94.0445 88.7008 94.4438C89.0711 94.8499 89.4514 95.2477 89.8106 95.6633C90.173 96.0762 90.5418 96.4836 90.8919 96.9069L90.1196 97.2939C89.9445 96.5555 89.7716 95.8167 89.6167 95.0737C89.4585 94.3314 89.3231 93.584 89.1813 92.838C88.9231 91.3402 88.6823 89.8385 88.5683 88.3076C89.1156 89.7392 89.536 91.1998 89.939 92.6644C90.1277 93.3997 90.323 94.1334 90.4954 94.8724C90.671 95.6106 90.8288 96.353 90.9842 97.0958L90.9856 97.1022C91.0061 97.2003 90.9936 97.3025 90.9501 97.3925C90.9066 97.4826 90.8347 97.5553 90.7457 97.5991C90.6567 97.6429 90.5558 97.6552 90.459 97.6341C90.3623 97.6131 90.2753 97.5598 90.2119 97.4829C89.8627 97.0588 89.5323 96.6188 89.1953 96.1844C88.8552 95.7527 88.5362 95.303 88.2072 94.8618C87.8864 94.4137 87.5642 93.9668 87.2566 93.5075C86.9458 93.051 86.6428 92.5878 86.3561 92.1108Z" fill="#BAD5DB"/>
<path d="M94.6017 91.1592C94.3458 91.7183 94.0579 92.2553 93.7709 92.793C93.4764 93.3255 93.18 93.8567 92.8673 94.3767C92.5636 94.9029 92.2369 95.4132 91.9182 95.929C91.5969 96.4431 91.2576 96.9447 90.9283 97.4533L90.4628 96.742C91.0734 96.6151 91.6863 96.4997 92.3001 96.3895C92.9165 96.2919 93.5292 96.1759 94.1486 96.0935C94.7659 96.0007 95.3866 95.925 96.0083 95.8542C96.6321 95.7943 97.255 95.7299 97.8866 95.7094C97.2957 95.9363 96.6962 96.1193 96.0976 96.307C95.4968 96.4836 94.895 96.6553 94.2899 96.81C93.6869 96.9751 93.0771 97.1064 92.4711 97.2564C91.8625 97.3935 91.253 97.5256 90.6411 97.6461L90.6315 97.648C90.543 97.6655 90.4514 97.6557 90.3684 97.6199C90.2854 97.5842 90.2148 97.5241 90.1658 97.4474C90.1168 97.3708 90.0915 97.281 90.0933 97.1896C90.095 97.0983 90.1237 97.0096 90.1756 96.9349C90.5212 96.4376 90.8569 95.9334 91.2106 95.4417C91.5668 94.9517 91.9151 94.4562 92.2864 93.9766C92.6487 93.4908 93.0272 93.0161 93.4077 92.5429C93.7956 92.0747 94.1827 91.6059 94.6017 91.1592Z" fill="#BAD5DB"/>
<path d="M95.7414 101.075C95.2465 100.838 94.7783 100.563 94.3075 100.293C93.8428 100.013 93.3822 99.7287 92.931 99.4311C92.023 98.8435 91.1441 98.2159 90.2815 97.5661L90.9414 97.434C90.42 98.2949 89.8795 99.1442 89.2997 99.9693C89.016 100.386 88.7149 100.791 88.4123 101.196C88.1026 101.597 87.7929 101.997 87.4514 102.378C87.6267 101.895 87.8338 101.431 88.0408 100.968C88.255 100.509 88.4706 100.051 88.7036 99.6033C89.1573 98.7008 89.6504 97.8224 90.1624 96.9557C90.193 96.904 90.2333 96.8589 90.2811 96.8229C90.3289 96.787 90.3832 96.7609 90.4409 96.7462C90.4986 96.7316 90.5586 96.7285 90.6175 96.7374C90.6763 96.7462 90.7329 96.7666 90.784 96.7976L90.8185 96.8207L90.8224 96.8237C91.6896 97.4673 92.5406 98.1331 93.3623 98.8391C93.776 99.1882 94.1803 99.5502 94.5805 99.9179C94.9747 100.294 95.3714 100.666 95.7414 101.075Z" fill="#BAD5DB"/>
<path d="M77.239 90.6846C79.555 91.5656 81.814 92.5663 84.0648 93.5842C85.1851 94.104 86.3078 94.6185 87.4178 95.1599C88.5337 95.6889 89.6391 96.2396 90.7441 96.7915L90.7475 96.7932C90.8179 96.8283 90.8777 96.8818 90.921 96.9481C90.9642 97.0144 90.9892 97.0912 90.9935 97.1706C90.9977 97.2499 90.9811 97.329 90.9452 97.3997C90.9093 97.4704 90.8556 97.5301 90.7894 97.5728C90.0597 98.0431 89.3148 98.4891 88.5774 98.9472C87.8414 99.4073 87.0894 99.842 86.3461 100.291C85.5955 100.728 84.8483 101.17 84.0888 101.593C83.333 102.022 82.5692 102.438 81.7975 102.841C82.4843 102.303 83.1796 101.778 83.8834 101.266C84.5831 100.748 85.2948 100.249 86.0033 99.7453C86.7191 99.253 87.4262 98.7466 88.1492 98.2657C88.8709 97.7827 89.585 97.2877 90.3144 96.8171L90.3597 97.5983C89.2458 97.0651 88.1325 96.5308 87.0296 95.9747C85.9207 95.431 84.8246 94.8605 83.726 94.2953C81.5392 93.1431 79.3606 91.9736 77.239 90.6846Z" fill="#BAD5DB"/>
<path d="M79.0432 97.5847C79.8264 97.2851 80.5795 96.9105 81.2926 96.4662C81.9564 96.0695 82.5092 95.5076 82.8988 94.8339C83.2363 94.1443 83.3578 93.3666 83.247 92.605C83.1333 91.7666 82.9398 90.9412 82.669 90.1406C83.271 90.8035 83.7107 91.6005 83.9526 92.4674C84.229 93.3991 84.1402 94.4028 83.7046 95.2699C83.2348 96.101 82.5031 96.7482 81.6269 97.1078C80.8135 97.4665 79.9292 97.6297 79.0432 97.5847ZM85.8949 94.9169C85.8453 95.5497 85.7378 96.1765 85.5738 96.7892C85.4177 97.3919 85.2296 97.9857 85.0103 98.5679C84.7925 99.1507 84.5431 99.7208 84.2635 100.276C83.9837 100.844 83.6517 101.384 83.2721 101.889C83.3205 101.256 83.4277 100.629 83.592 100.017C83.7479 99.4138 83.9364 98.8202 84.1567 98.2383C84.3754 97.6559 84.6251 97.0859 84.9046 96.5308C85.1847 95.9629 85.5162 95.4226 85.8949 94.9169Z" fill="#BAD5DB"/>
<path d="M77.0163 113.073C77.0163 113.073 73.748 116.471 72.1875 115.647C70.627 114.823 68.0398 115.228 68.0398 115.228L67.4034 119.595L60.7539 119.253L56.0199 116.291L56.0139 110.502C56.0139 110.502 60.0761 108.903 61.6734 107.293C63.2706 105.682 68.2761 103.549 68.2761 103.549L72.3657 107.07C72.3657 107.07 77.0259 110.21 77.0163 113.073Z" fill="#C0D8DD"/>
<path d="M68.0398 115.229C67.0267 114.807 66.0367 114.34 65.051 113.866C64.5612 113.623 64.0673 113.387 63.5821 113.135C63.0956 112.886 62.6064 112.642 62.1248 112.383L62.5059 111.948C63.3779 113.183 64.2201 114.44 65.0459 115.707C65.8619 116.982 66.6682 118.264 67.4033 119.596C66.4252 118.435 65.5182 117.225 64.6209 116.007C63.7335 114.783 62.8623 113.547 62.021 112.29L62.0188 112.287C61.9818 112.231 61.9641 112.165 61.9686 112.098C61.9731 112.032 61.9995 111.968 62.0436 111.919C62.0877 111.869 62.147 111.836 62.212 111.824C62.2769 111.812 62.3439 111.823 62.4021 111.854C62.8833 112.114 63.3568 112.388 63.833 112.657C64.3105 112.924 64.7794 113.207 65.2523 113.482C66.192 114.044 67.1275 114.614 68.0398 115.229Z" fill="#9FC6CC"/>
<path d="M60.7539 119.254C60.8844 118.039 61.0724 116.836 61.2797 115.637C61.4838 114.437 61.7212 113.245 61.9668 112.054L62.4305 112.375L60.8627 113.408C60.3328 113.741 59.8096 114.084 59.2741 114.408C58.7423 114.739 58.2043 115.059 57.6645 115.377C57.1206 115.688 56.5783 116.002 56.0199 116.291C56.5021 115.885 57.0005 115.504 57.4971 115.12C57.9979 114.742 58.5004 114.367 59.0093 114.002C59.5143 113.631 60.0318 113.279 60.5424 112.916L62.0964 111.862C62.1466 111.828 62.2057 111.81 62.2661 111.811C62.3265 111.811 62.3855 111.829 62.4353 111.864C62.4852 111.899 62.5238 111.947 62.546 112.004C62.5682 112.061 62.5731 112.124 62.5601 112.183C62.3025 113.371 62.0367 114.557 61.7376 115.736C61.4417 116.916 61.1266 118.091 60.7539 119.254Z" fill="#9FC6CC"/>
<path d="M56.0139 110.503C56.552 110.569 57.0827 110.664 57.6142 110.756C58.1439 110.856 58.6725 110.959 59.1985 111.073C60.2516 111.297 61.2971 111.551 62.3383 111.822L61.9646 112.07C62.0504 111.573 62.1262 111.074 62.2201 110.577C62.313 110.081 62.4021 109.584 62.5074 109.09C62.7102 108.1 62.9316 107.113 63.2101 106.135C63.1732 107.152 63.0789 108.159 62.9662 109.164C62.9137 109.667 62.845 110.167 62.7802 110.668C62.7163 111.169 62.6343 111.668 62.5623 112.167C62.5509 112.247 62.5087 112.318 62.4452 112.366C62.3816 112.414 62.3019 112.435 62.2234 112.423L62.1934 112.417L62.1886 112.416C61.1466 112.148 60.1089 111.863 59.0788 111.548C58.5632 111.393 58.0502 111.227 57.5384 111.057C57.0282 110.88 56.5173 110.706 56.0139 110.503Z" fill="#9FC6CC"/>
<path d="M77.0163 113.073C75.7821 113.069 74.5499 113.034 73.3174 113.003C72.0854 112.966 70.8543 112.913 69.6233 112.858C67.1621 112.738 64.7025 112.591 62.2447 112.416L62.2425 112.416C62.1903 112.412 62.14 112.394 62.0969 112.364C62.0537 112.334 62.0192 112.293 61.9969 112.245C61.9745 112.198 61.9652 112.144 61.9698 112.092C61.9745 112.039 61.9929 111.988 62.0232 111.945C62.5244 111.231 63.041 110.528 63.55 109.82C64.0576 109.11 64.5815 108.413 65.0964 107.709C65.6195 107.01 66.1359 106.307 66.6708 105.618C67.2043 104.927 67.729 104.23 68.2761 103.549C67.8211 104.296 67.3436 105.027 66.8751 105.765C66.4078 106.503 65.9222 107.228 65.4432 107.958C64.956 108.682 64.4777 109.413 63.9833 110.132C63.4902 110.852 63.0047 111.577 62.5038 112.291L62.2823 111.82C64.7423 111.961 67.2003 112.132 69.6565 112.333C70.8843 112.437 72.112 112.543 73.3387 112.666C74.5651 112.793 75.7917 112.917 77.0163 113.073Z" fill="#9FC6CC"/>
<path d="M72.7806 107.368C72.1272 107.903 71.5363 108.512 71.0195 109.183C70.5167 109.812 70.1917 110.568 70.0792 111.37C70.0368 111.762 70.0686 112.157 70.1729 112.537C70.2733 112.929 70.4287 113.304 70.6344 113.651C71.0741 114.375 71.5953 115.045 72.1875 115.647C71.4229 115.216 70.7576 114.625 70.2357 113.914C69.6704 113.171 69.3987 112.241 69.4737 111.306C69.5995 110.387 70.0145 109.534 70.657 108.874C71.2532 108.227 71.9766 107.714 72.7806 107.368ZM67.4241 112.452C67.2921 111.839 67.1996 111.218 67.1472 110.592C67.0893 109.972 67.0522 109.351 67.0393 108.729C67.0243 108.107 67.0351 107.485 67.0659 106.862C67.0911 106.235 67.1571 105.611 67.2634 104.992C67.3962 105.605 67.489 106.227 67.5412 106.852C67.5988 107.473 67.6364 108.094 67.6482 108.715C67.6621 109.337 67.6518 109.959 67.6207 110.582C67.5953 111.209 67.5296 111.834 67.4241 112.452Z" fill="#9FC6CC"/>
</svg>
